<svg  xmlns="http://www.w3.org/2000/svg">
    <!-- Technologies -->
    <g id="redux">
        <path d="M72.6971 69.5627C76.5688 69.1619 79.5061 65.8242 79.3725 61.8184C79.2393 57.8131 75.9012 54.6086 71.8959 54.6086H71.6291C67.4897 54.7422 64.2856 58.2135 64.4193 62.3525C64.5529 64.3553 65.3537 66.091 66.5553 67.2926C62.016 76.2385 55.0734 82.7807 44.6594 88.2549C37.5832 91.9934 30.2402 93.3287 22.8971 92.3943C16.8889 91.593 12.216 88.923 9.27827 84.5164C5.00614 77.9742 4.60573 70.8975 8.21065 63.8213C10.7475 58.7475 14.7525 55.009 17.2893 53.1398C16.7553 51.4041 15.9541 48.4668 15.5537 46.3307C-3.80574 60.35 -1.80287 79.3094 4.07172 88.2549C8.47745 94.9311 17.4229 99.0701 27.3029 99.0701C29.9729 99.0701 32.643 98.8029 35.3135 98.1357C52.4033 94.7975 65.3541 84.65 72.6971 69.5627ZM96.1955 53.0066C86.0483 41.1234 71.0951 34.5811 54.0053 34.5811H51.8693C50.6676 32.1779 48.1307 30.5754 45.327 30.5754H45.0598C40.9213 30.709 37.7172 34.1803 37.8504 38.3197C37.984 42.325 41.3217 45.5295 45.327 45.5295H45.5938C48.5311 45.3959 51.068 43.5266 52.1361 40.9898H54.5393C64.6865 40.9898 74.2992 43.927 82.9779 49.6684C89.6533 54.0746 94.4598 59.816 97.1299 66.7586C99.3996 72.3664 99.266 77.8406 96.8627 82.5139C93.1246 89.5902 86.8496 93.4623 78.5717 93.4623C73.2311 93.4623 68.1578 91.8598 65.4873 90.6582C64.0188 91.9934 61.3484 94.1295 59.4791 95.4652C65.2205 98.1352 71.0951 99.6041 76.7025 99.6041C89.5197 99.6041 98.9992 92.5275 102.604 85.4512C106.476 77.707 106.209 64.3553 96.1955 53.0066ZM28.3709 71.832C28.5045 75.8377 31.8422 79.0418 35.8475 79.0418H36.1147C40.2537 78.9086 43.4578 75.4369 43.3242 71.2979C43.191 67.2922 39.8529 64.0881 35.8475 64.0881H35.5807C35.3135 64.0881 34.9127 64.0881 34.6463 64.2213C29.1721 55.1422 26.9025 45.2623 27.7037 34.5807C28.2373 26.5697 30.9078 19.6266 35.5807 13.8852C39.4525 8.94508 46.9291 6.5418 52.0029 6.40861C66.1549 6.14139 72.1627 23.7656 72.5635 30.8422C74.2992 31.2426 77.2365 32.1775 79.2393 32.8451C77.6369 11.2156 64.2856 0 51.4688 0C39.4524 0 28.3709 8.67869 23.9647 21.4963C17.8234 38.5865 21.8287 55.009 29.3053 67.9602C28.6381 68.8947 28.2373 70.3635 28.3709 71.8324V71.832Z" fill="#764ABC"/>    
    </g>
    <g id="css">
        <path d="M22.1325 101.154L13.71 7.4375H106.29L97.8562 101.139L59.9437 111.562L22.1325 101.154Z" fill="#1572B6"/>
        <path d="M60 103.597L90.6375 95.1739L97.845 15.1018H60V103.597Z" fill="#33A9DC"/>
        <path d="M60 49.054H75.3375L76.395 37.2842H60V25.7896H89.0625L88.785 28.8724L85.9387 60.5487H60V49.054Z" fill="white"/>
        <path d="M60.0713 78.9045L60.0188 78.9193L47.1113 75.4609L46.2863 66.2942H34.65L36.2738 84.3413L60.015 90.8788L60.0713 90.864V78.9045Z" fill="#EBEBEB"/>
        <path d="M74.3513 60.0615L72.9563 75.4534L60.03 78.9119V90.8714L83.79 84.3412L83.9663 82.4001L85.98 60.0615H74.3513Z" fill="white"/>
        <path d="M60.0413 25.7896V37.2842H32.0438L31.8113 34.6997L31.2825 28.8724L31.005 25.7896H60.0413ZM60 49.054V60.5487H47.2538L47.0213 57.9642L46.4963 52.1369L46.2188 49.054H60Z" fill="#EBEBEB"/>
    </g>

    <g id="js">
        <path d="M7.5 7.5H112.5V112.5H7.5V7.5Z" fill="#F5DE19"/>
        <path d="M78.0338 89.5312C78.9284 91.3485 80.3183 92.8759 82.0434 93.9375C83.7684 94.9991 85.7584 95.5515 87.7838 95.5313C91.8713 95.5313 94.485 93.4875 94.485 90.6562C94.485 87.2812 91.8 86.0738 87.3 84.105L84.8325 83.0475C77.7075 80.0138 72.9825 76.215 72.9825 68.1825C72.9825 60.7838 78.6075 55.1475 87.4313 55.1475C90.2877 54.9412 93.1416 55.5805 95.637 56.9856C98.1324 58.3907 100.159 60.4994 101.464 63.0488L93.75 67.98C93.2476 66.716 92.3728 65.6345 91.2416 64.879C90.1105 64.1236 88.7764 63.7298 87.4163 63.75C86.8229 63.6906 86.2236 63.7555 85.6567 63.9404C85.0897 64.1254 84.5675 64.4265 84.1234 64.8244C83.6792 65.2224 83.3228 65.7085 83.0769 66.2518C82.831 66.7951 82.7009 67.3837 82.695 67.98C82.695 70.9388 84.5288 72.1388 88.7625 73.98L91.23 75.0375C99.615 78.6338 104.355 82.2975 104.355 90.5363C104.355 99.42 97.3763 104.287 88.005 104.287C84.3537 104.52 80.713 103.691 77.5223 101.901C74.3317 100.11 71.7274 97.4342 70.0238 94.1963L78.0338 89.5312ZM43.1775 90.3863C44.7263 93.135 46.1363 95.46 49.5263 95.46C52.7663 95.46 54.8138 94.1925 54.8138 89.2612V55.71H64.68V89.3925C64.68 99.6075 58.68 104.257 49.9463 104.257C46.8591 104.426 43.7931 103.657 41.1513 102.051C38.5096 100.444 36.4157 98.0761 35.145 95.2575L43.1775 90.3863Z" fill="black"/>
    </g>

    <g id="html">
        <path d="M22.1325 102.004L13.7063 7.5H106.294L97.8563 101.989L59.9438 112.5L22.1325 102.004Z" fill="#E44F26"/>
        <path d="M60 104.468L90.6375 95.9738L97.845 15.2288H60V104.468Z" fill="#F1662A"/>
        <path d="M60 50.2763H44.6625L43.605 38.4075H60V26.8163H30.9375L31.215 29.9288L34.0613 61.8675H60V50.2763ZM60 80.3775L59.9475 80.3925L47.04 76.9088L46.215 67.665H34.5787L36.2025 85.86L59.9475 92.4525L60 92.4375V80.3775Z" fill="#EBEBEB"/>
        <path d="M59.9587 50.2763V61.8675H74.2312L72.8887 76.9013L59.9587 80.3888V92.4488L83.7225 85.86L83.895 83.9025L86.6175 53.3888L86.9025 50.2763H59.9587ZM59.9587 26.8163V38.4075H87.9562L88.1887 35.805L88.7175 29.9288L88.995 26.8163H59.9587Z" fill="white"/>
    </g>
    <g id="vscode">
        <path d="M101.535 17.605L81.354 7.88899C80.2143 7.33948 78.9319 7.15814 77.6845 7.37011C76.4372 7.58208 75.2867 8.17686 74.3925 9.07199L8.32998 69.3C7.52845 70.0273 7.04865 71.0432 6.99614 72.1243C6.94363 73.2053 7.32271 74.2629 8.04998 75.0645C8.13748 75.159 8.22498 75.25 8.31948 75.334L13.713 80.234C14.4178 80.8754 15.3249 81.2497 16.277 81.2919C17.229 81.3341 18.1657 81.0416 18.9245 80.465L98.497 20.125C99.098 19.6689 99.8144 19.3897 100.566 19.3186C101.317 19.2476 102.073 19.3877 102.749 19.7231C103.424 20.0585 103.993 20.5758 104.391 21.217C104.789 21.8581 105 22.5975 105 23.352V23.1175C105 21.9656 104.675 20.8372 104.062 19.862C103.449 18.8868 102.573 18.1045 101.535 17.605Z" fill="#0065A9"/>
        <path d="M101.535 94.395L81.354 104.115C80.214 104.662 78.9319 104.843 77.6849 104.631C76.4379 104.419 75.2875 103.825 74.3925 102.932L8.32998 42.7C7.52845 41.9727 7.04865 40.9568 6.99614 39.8758C6.94363 38.7947 7.32271 37.7371 8.04998 36.9355C8.13748 36.841 8.22498 36.75 8.31948 36.666L13.713 31.766C14.4185 31.1219 15.3277 30.7459 16.2821 30.7037C17.2365 30.6615 18.1754 30.9557 18.935 31.535L98.497 91.875C99.098 92.3311 99.8144 92.6104 100.566 92.6814C101.317 92.7524 102.073 92.6123 102.749 92.2769C103.424 91.9415 103.993 91.4242 104.391 90.783C104.789 90.1419 105 89.4025 105 88.648V88.9C104.996 90.0488 104.669 91.1733 104.057 92.1451C103.444 93.1168 102.57 93.8965 101.535 94.395Z" fill="#007ACC"/>
        <path d="M81.354 104.115C80.214 104.662 78.932 104.843 77.685 104.631C76.438 104.419 75.2876 103.825 74.3925 102.932C74.8952 103.428 75.533 103.764 76.2261 103.899C76.9193 104.035 77.6369 103.962 78.289 103.691C78.9412 103.42 79.4988 102.963 79.8921 102.376C80.2855 101.79 80.4969 101.1 80.5 100.394V11.606C80.5006 10.8965 80.2906 10.2028 79.8966 9.61281C79.5026 9.02277 78.9424 8.56294 78.2868 8.29158C77.6313 8.02022 76.91 7.94953 76.2142 8.08846C75.5184 8.2274 74.8796 8.56971 74.3785 9.07204C75.2729 8.17723 76.4232 7.58242 77.6703 7.36986C78.9174 7.1573 80.1998 7.3375 81.34 7.88554L101.518 17.5875C102.559 18.0845 103.438 18.8658 104.054 19.8412C104.671 20.8166 104.998 21.9463 105 23.1V88.9C105 90.0528 104.675 91.1823 104.061 92.1582C103.448 93.1341 102.571 93.9168 101.532 94.416L81.354 104.115Z" fill="#1F9CF0"/>
    </g>
    <g id="git">
        <g clip-path="url(#clip0_2_5868)">
        <path d="M103.02 47.8219L57.1758 1.98038C54.5372 -0.6598 50.2552 -0.6598 47.6134 1.98038L38.0937 11.5001L50.1699 23.5763C52.9762 22.6281 56.1943 23.2642 58.4313 25.5012C60.6789 27.7525 61.3106 30.9981 60.3393 33.8134L71.9775 45.452C74.7932 44.482 78.0421 45.1095 80.291 47.3621C83.434 50.5039 83.434 55.596 80.291 58.7399C77.1471 61.8841 72.055 61.8841 68.9095 58.7399C66.5454 56.3733 65.9613 52.9013 67.1582 49.9888L56.3046 39.1352L56.3034 67.6973C57.0902 68.0863 57.8088 68.6002 58.4313 69.2189C61.5743 72.3607 61.5743 77.4532 58.4313 80.5995C55.2874 83.7422 50.1929 83.7422 47.0535 80.5995C43.9105 77.4532 43.9105 72.3611 47.0535 69.2193C47.8067 68.4658 48.7019 67.869 49.6871 67.4635V38.6352C48.7004 38.2324 47.8048 37.6353 47.0535 36.8793C44.6722 34.5013 44.0996 31.0071 45.3198 28.0831L33.4154 16.1775L1.98105 47.6099C-0.660352 50.2525 -0.660352 54.5349 1.98105 57.1755L47.8259 103.018C50.4652 105.658 54.7464 105.658 57.3891 103.018L103.019 57.3884C105.66 54.747 105.66 50.4621 103.019 47.8219" fill="#DE4C36"/>
        </g>
        <!-- <defs>
        <clipPath id="clip0_2_5868">
        <rect width="105" height="105" fill="white"/>
        </clipPath>
        </defs> -->
    </g>
    <g id="react">
        <g clip-path="url(#clip0_2_5870)">
        <path d="M92.9056 32.7028C91.7031 32.2887 90.4904 31.9051 89.2687 31.5524C89.4739 30.7107 89.6628 29.8792 89.8306 29.0624C92.5838 15.6484 90.7839 4.84184 84.6361 1.28381C78.7416 -2.12716 69.1016 1.42955 59.3659 9.93348C58.4064 10.7731 57.4682 11.6369 56.5522 12.524C55.9389 11.9341 55.3149 11.3556 54.6803 10.7889C44.4767 1.69623 34.2493 -2.13602 28.1081 1.43221C22.2189 4.8538 20.475 15.0127 22.9538 27.7254C23.2004 28.9845 23.4788 30.2371 23.7888 31.4819C22.3412 31.8948 20.9442 32.3342 19.6073 32.802C7.64443 36.9882 0.00476074 43.5483 0.00476074 50.353C0.00476074 57.3809 8.20629 64.4301 20.6662 68.7044C21.6763 69.0495 22.6949 69.3693 23.7209 69.6635C23.3877 71.0042 23.0918 72.3541 22.8337 73.7114C20.4706 86.2035 22.316 96.1224 28.1893 99.5223C34.2555 103.033 44.437 99.4248 54.3506 90.7268C55.1545 90.0197 55.9407 89.2925 56.7084 88.546C57.7004 89.5067 58.7189 90.4394 59.7627 91.343C69.366 99.6365 78.8502 102.985 84.7177 99.5763C90.7782 96.055 92.748 85.3995 90.1907 72.4357C89.9893 71.42 89.7634 70.4094 89.5132 69.4048C90.2282 69.1921 90.93 68.9733 91.6141 68.7456C104.567 64.4385 112.995 57.4748 112.995 50.353C112.995 43.5235 105.109 36.9191 92.9056 32.7028ZM90.0963 64.1474C89.4783 64.3525 88.8445 64.5506 88.1984 64.7433C86.7683 60.1996 84.8387 55.3684 82.4769 50.3764C84.7305 45.5036 86.586 40.7341 87.9759 36.2201C89.1319 36.5558 90.2534 36.9098 91.3347 37.2832C101.791 40.8962 108.169 46.2372 108.169 50.353C108.169 54.7367 101.281 60.4277 90.0963 64.1474ZM85.4557 73.3765C86.5865 79.1087 86.7476 84.2916 85.9986 88.3436C85.3259 91.9845 83.9727 94.4116 82.299 95.3839C78.7385 97.4526 71.1235 94.7637 62.911 87.6707C61.9401 86.8305 60.9927 85.9634 60.0699 85.0704C63.2539 81.5757 66.4358 77.5131 69.5412 73.0009C75.0036 72.5145 80.1641 71.7189 84.844 70.6332C85.0694 71.5426 85.2734 72.4574 85.4557 73.3765ZM38.5257 95.0264C35.0469 96.2592 32.2759 96.2947 30.6009 95.3254C27.0369 93.2625 25.5552 85.2981 27.5762 74.6151C27.8165 73.3527 28.0916 72.0973 28.4012 70.8502C33.0294 71.8779 38.1523 72.6168 43.6275 73.0625C46.7542 77.4777 50.0278 81.5358 53.3271 85.0894C52.6259 85.7704 51.9082 86.4339 51.1745 87.0793C46.7904 90.9253 42.3974 93.6541 38.5257 95.0264ZM22.2277 64.1204C16.7181 62.2302 12.168 59.7739 9.04931 57.0934C6.24661 54.6849 4.83202 52.2932 4.83202 50.353C4.83202 46.2235 10.9657 40.9564 21.1962 37.3767C22.4378 36.9426 23.7372 36.5328 25.0856 36.1483C26.4997 40.7642 28.3544 45.5905 30.5926 50.4708C28.3252 55.4233 26.4441 60.3267 25.0163 64.9971C24.0798 64.7278 23.15 64.4355 22.2277 64.1204ZM27.691 26.7947C25.5676 15.9031 26.9777 7.68712 30.5268 5.62504C34.3067 3.42873 42.6653 6.56017 51.4755 14.4116C52.05 14.9247 52.6152 15.4483 53.1708 15.982C49.8879 19.5201 46.6443 23.5481 43.5454 27.9372C38.2313 28.4315 33.1446 29.2254 28.4678 30.289C28.1797 29.1311 27.9206 27.9661 27.691 26.7952V26.7947ZM76.4301 38.874C75.3255 36.9589 74.1799 35.068 72.9941 33.2025C76.5992 33.6601 80.0533 34.2674 83.297 35.0098C82.3233 38.1426 81.1095 41.4176 79.6808 44.7754C78.6365 42.7867 77.5527 40.8192 76.4301 38.874ZM56.5544 19.4443C58.7806 21.8652 61.0104 24.5679 63.2036 27.5004C58.7546 27.2895 54.2982 27.2886 49.8491 27.4977C52.0445 24.5922 54.2932 21.8931 56.5544 19.4443ZM36.5511 38.9072C35.4425 40.8368 34.3789 42.792 33.3613 44.7714C31.956 41.4255 30.7532 38.1355 29.7712 34.9584C32.9949 34.2346 36.4328 33.6428 40.0149 33.1936C38.8159 35.0705 37.661 36.9754 36.5511 38.9067V38.9072ZM40.1178 67.857C36.4169 67.4424 32.9274 66.8811 29.7045 66.1768C30.702 62.943 31.9312 59.583 33.367 56.1653C34.3887 58.1462 35.4567 60.1026 36.57 62.0331C37.7149 64.0177 38.9005 65.9615 40.1178 67.857ZM56.6877 81.6027C54.3996 79.1256 52.1177 76.3848 49.8892 73.4372C52.0528 73.5223 54.2584 73.5657 56.5001 73.5657C58.8031 73.5657 61.0797 73.5139 63.3206 73.4138C61.1203 76.4145 58.8989 79.1592 56.6877 81.6027ZM79.7263 55.9908C81.2366 59.4461 82.5096 62.7884 83.5203 65.9668C80.2444 66.7172 76.7073 67.3214 72.9804 67.7702C74.1746 65.87 75.3311 63.9462 76.4491 61.9999C77.5858 60.0215 78.6784 58.018 79.7263 55.9908ZM72.268 59.5794C70.5565 62.5635 68.7487 65.491 66.8475 68.3571C63.4038 68.6019 59.9525 68.7235 56.5001 68.7217C52.9837 68.7217 49.5635 68.6118 46.27 68.3974C44.3193 65.5379 42.477 62.6053 40.7472 59.606H40.7476C39.0259 56.6225 37.4177 53.5745 35.9265 50.4686C37.4139 47.3619 39.0172 44.3125 40.733 41.3268L40.7326 41.3272C42.4478 38.3407 44.2753 35.4207 46.2113 32.5734C49.5715 32.3183 53.0172 32.1854 56.4996 32.1854H56.5001C59.9984 32.1854 63.4486 32.3196 66.8078 32.5765C68.7243 35.4195 70.5402 38.3295 72.2521 41.3011C73.9736 44.2802 75.5982 47.3148 77.1231 50.3999C75.6138 53.5166 73.9944 56.5784 72.268 59.5794ZM82.2253 5.48062C86.0087 7.67073 87.4803 16.5025 85.103 28.0842C84.9512 28.8231 84.7808 29.5758 84.5955 30.339C79.9072 29.2528 74.8169 28.4453 69.4874 27.9434C66.3828 23.506 63.1656 19.4718 59.9361 15.9793C60.7825 15.1605 61.6491 14.3628 62.5349 13.5872C70.8768 6.30147 78.6732 3.42474 82.2253 5.48062ZM56.5001 40.2264C62.0724 40.2264 66.5898 44.7603 66.5898 50.353C66.5898 55.9456 62.0724 60.4796 56.5001 60.4796C50.9278 60.4796 46.4104 55.9456 46.4104 50.353C46.4104 44.7603 50.9278 40.2264 56.5001 40.2264Z" fill="#00D8FF"/>
        </g>
        <!-- <defs>
        <clipPath id="clip0_2_5870">
        <rect width="113" height="101" fill="white"/>
        </clipPath>
        </defs> -->
    </g>
    <g id="sass">
        <g clip-path="url(#clip0_2_5872)">
        <path d="M100.673 50.0767C96.603 50.0975 93.0653 51.0695 90.1035 52.5064C89.0162 50.3721 87.9295 48.4708 87.738 47.0761C87.5246 45.4494 87.2691 44.4561 87.5246 42.5122C87.7805 40.5683 88.9312 37.8002 88.9098 37.589C88.8887 37.3779 88.6538 36.3846 86.3098 36.3638C83.9658 36.3425 81.9413 36.8074 81.7068 37.42C81.4724 38.0326 81.025 39.4274 80.7266 40.8638C80.3216 42.9771 76.0386 50.5199 73.5881 54.4711C72.7993 52.9291 72.1174 51.5765 71.968 50.499C71.755 48.8723 71.4991 47.879 71.755 45.9351C72.0109 43.9912 73.1617 41.2235 73.1402 41.0119C73.1187 40.8008 72.8843 39.8075 70.5403 39.7867C68.1958 39.7654 66.1713 40.2303 65.9373 40.8429C65.7029 41.456 65.4469 42.8924 64.957 44.2871C64.4667 45.6818 58.7769 58.2751 57.2852 61.5285C56.6824 62.8454 56.0501 64.1487 55.3886 65.4376C55.3886 65.4376 55.3672 65.5011 55.3032 65.6067C55.0954 66.0108 54.8824 66.4123 54.6643 66.8111V66.8319C54.3444 67.4028 54.0035 67.9307 53.833 67.9307C53.705 67.9307 53.4706 66.4096 53.8755 64.3388C54.7278 59.9652 56.7524 53.1616 56.7313 52.9291C56.7313 52.8022 57.1148 51.6191 55.4101 51.0061C53.7475 50.3934 53.1511 51.4075 53.0017 51.4075C52.8527 51.4075 52.7458 51.7669 52.7458 51.7669C52.7458 51.7669 54.6003 44.1181 49.2085 44.1181C45.8417 44.1181 41.1958 47.7735 38.8943 51.0695C36.278 52.4812 33.6639 53.8969 31.052 55.3166C29.7953 56.014 28.4951 56.7114 27.2803 57.3661C27.1949 57.2818 27.1099 57.1758 27.0244 57.0915C20.5034 50.1823 8.442 45.3012 8.95339 36.0257C9.14534 32.645 10.3171 23.7705 32.1178 12.9948C50.0608 4.22589 64.3392 6.65555 66.8111 12.0437C70.3484 19.735 59.1608 34.0184 40.6204 36.0887C33.5455 36.8708 29.8373 34.1661 28.9 33.152C27.9197 32.0953 27.7703 32.0319 27.4079 32.2435C26.8115 32.5607 27.1949 33.5114 27.4079 34.0605C27.9622 35.497 30.2422 38.0326 34.0994 39.2796C37.5091 40.378 45.7988 40.9911 55.8361 37.1454C67.0666 32.8348 75.8466 20.8547 73.2682 10.8184C70.6893 0.633969 53.641 -2.7255 37.5091 2.95805C27.9197 6.33927 17.52 11.6635 10.0402 18.594C1.15363 26.8341 -0.253039 33.9971 0.322334 36.9977C2.38984 47.6466 17.2006 54.5771 23.1248 59.7115C22.8263 59.8805 22.5489 60.0287 22.3149 60.1556C19.3526 61.6133 8.05811 67.4658 5.24523 73.6569C2.04891 80.6717 5.75708 85.7009 8.20756 86.3765C15.8154 88.4686 23.6362 84.7077 27.8342 78.4953C32.0323 72.2834 31.5209 64.2119 29.5818 60.5144C29.5604 60.4723 29.5393 60.4297 29.4964 60.3876C30.2637 59.9439 31.052 59.479 31.8194 59.0354C33.2296 58.2088 34.6578 57.4127 36.1029 56.6475C35.3781 58.6127 34.8452 60.958 34.5897 64.3388C34.2698 68.3114 35.9105 73.4666 38.063 75.4947C39.0223 76.3829 40.1515 76.4037 40.8763 76.4037C43.3908 76.4037 44.5205 74.3329 45.7778 71.882C47.3119 68.8818 48.6971 65.3955 48.6971 65.3955C48.6971 65.3955 46.971 74.8191 51.6595 74.8191C53.3641 74.8191 55.0902 72.6215 55.8575 71.5018V71.5227C55.8575 71.5227 55.9 71.4592 55.9855 71.3115C56.156 71.0369 56.2624 70.8674 56.2624 70.8674V70.8257C56.9443 69.6422 58.4789 66.9588 60.7589 62.5005C63.6998 56.7535 66.5342 49.5697 66.5342 49.5697C66.5342 49.5697 66.7901 51.3232 67.6634 54.2391C68.1753 55.9506 69.2401 57.831 70.0929 59.6481C69.411 60.5992 68.9846 61.1271 68.9846 61.1271L69.0061 61.1484C68.4518 61.8666 67.8554 62.6482 67.1945 63.4095C64.8716 66.1558 62.1016 69.3046 61.7178 70.2127C61.2699 71.2902 61.3768 72.0723 62.2296 72.7062C62.8475 73.1711 63.9553 73.2341 65.085 73.1711C67.1735 73.0229 68.6437 72.5159 69.3681 72.1992C70.4978 71.7977 71.819 71.1846 73.0548 70.2761C75.3352 68.6068 76.72 66.2193 76.5925 63.0714C76.5285 61.3387 75.9531 59.6059 75.2498 57.9787C75.4632 57.6833 75.6547 57.3874 75.8681 57.0915C79.4693 51.8724 82.2612 46.1463 82.2612 46.1463C82.2612 46.1463 82.5171 47.8999 83.3905 50.8162C83.8168 52.2952 84.6907 53.9011 85.4575 55.4644C82.0693 58.1904 79.9807 61.3595 79.2349 63.4303C77.8926 67.276 78.9365 69.0083 80.9185 69.4097C81.8133 69.6 83.092 69.1773 84.0298 68.7758C85.2231 68.3956 86.6297 67.7409 87.9724 66.7685C90.2529 65.0996 92.4474 62.7751 92.3195 59.6272C92.2555 58.1904 91.8721 56.7743 91.3392 55.4009C94.2161 54.2183 97.9242 53.563 102.655 54.1122C112.799 55.2953 114.802 61.5707 114.418 64.2124C114.035 66.8532 111.904 68.2901 111.201 68.7337C110.497 69.1777 110.263 69.3254 110.327 69.6422C110.412 70.1071 110.753 70.0862 111.35 70.0015C112.181 69.8538 116.678 67.8673 116.869 63.0075C117.189 56.7956 111.222 50.0133 100.673 50.0767ZM22.4214 76.2347C19.0542 79.8688 14.3662 81.2422 12.3417 80.0804C10.1681 78.8334 11.0204 73.4666 15.1545 69.6213C17.669 67.276 20.9083 65.0992 23.0608 63.7683C23.5507 63.4724 24.2755 63.0501 25.1493 62.5218C25.2983 62.437 25.3838 62.3949 25.3838 62.3949L25.8952 62.0777C27.4078 67.5714 25.9591 72.4103 22.4214 76.2347ZM46.9285 59.7115C45.7563 62.5431 43.3058 69.7904 41.8141 69.3889C40.5354 69.0509 39.7466 63.5572 41.5582 58.1269C42.4745 55.4009 44.4136 52.147 45.5433 50.8796C47.3759 48.851 49.4005 48.1745 49.8904 48.9992C50.5087 50.0767 47.6529 57.9366 46.9285 59.7115ZM67.152 69.3042C66.6617 69.5579 66.1932 69.7269 65.9798 69.6C65.8308 69.5153 66.1932 69.1773 66.1932 69.1773C66.1932 69.1773 68.7292 66.473 69.7305 65.2473C70.3063 64.5291 70.9877 63.684 71.7125 62.7329V63.0075C71.7125 66.2406 68.5583 68.4169 67.1516 69.3042H67.152ZM82.7511 65.7757C82.3887 65.5219 82.4527 64.6768 83.6674 62.0356C84.1363 61.0002 85.2441 59.2679 87.1411 57.5986C87.3541 58.2746 87.5035 58.9299 87.4821 59.5425C87.4606 63.6206 84.5202 65.1417 82.7511 65.7757Z" fill="#CD6799"/>
        </g>
        <!-- <defs>
        <clipPath id="clip0_2_5872">
        <rect width="117" height="87" fill="white"/>
        </clipPath>
        </defs> -->
    </g>
    <g id="typescript">
		<!-- <defs/>
		<rect id="icon" width="120.000000" height="120.000000" fill="#FFFFFF" fill-opacity="0"/> -->
		<path id="Vector" d="M0 60L0 120L60 120L120 120L120 60L120 0L60 0L0 0L0 60Z" fill="#007ACC" fill-opacity="1.000000" fill-rule="nonzero"/>
		<path id="Vector" d="M26.5375 60.3978L26.4993 65.3121L34.3088 65.3121L42.1184 65.3121L42.1184 87.5027L42.1184 109.693L47.6422 109.693L53.166 109.693L53.166 87.5027L53.166 65.3121L60.9755 65.3121L68.785 65.3121L68.785 60.4932C68.785 57.8264 68.7279 55.5979 68.6517 55.5408C68.5946 55.4646 59.0898 55.4264 47.566 55.4456L26.5946 55.5027L26.5375 60.3978Z" fill="#FFFFFF" fill-opacity="1.000000" fill-rule="nonzero"/>
		<path id="Vector" d="M96.8264 55.3636C99.8741 56.1255 102.198 57.4779 104.331 59.6874C105.436 60.8684 107.074 63.0208 107.207 63.535C107.245 63.6874 102.026 67.1921 98.8646 69.1541C98.7502 69.2302 98.2931 68.7351 97.7788 67.9731C96.236 65.7256 94.6169 64.7542 92.1407 64.5826C88.5027 64.3351 86.1598 66.2399 86.1788 69.4208C86.1788 70.3541 86.3121 70.9065 86.6931 71.6683C87.4932 73.3256 88.9789 74.316 93.6455 76.3351C102.236 80.0303 105.912 82.4684 108.198 85.9351C110.75 89.8018 111.322 95.9731 109.588 100.564C107.684 105.554 102.96 108.945 96.3121 110.068C94.255 110.43 89.3789 110.373 87.1693 109.973C82.3503 109.116 77.7788 106.735 74.9598 103.611C73.8551 102.392 71.7026 99.2112 71.8359 98.9827C71.8932 98.9065 72.3884 98.6017 72.9408 98.278C73.4741 97.9731 75.4932 96.8113 77.3979 95.7064L80.8456 93.7064L81.5693 94.7732C82.5789 96.316 84.7883 98.4303 86.1217 99.135C89.9503 101.154 95.2074 100.868 97.7979 98.5446C98.9027 97.535 99.3599 96.4874 99.3599 94.9446C99.3599 93.5541 99.1884 92.9446 98.4646 91.897C97.5312 90.5636 95.6265 89.4398 90.2169 87.0969C84.0265 84.4303 81.3599 82.7732 78.9218 80.1445C77.5122 78.6207 76.1788 76.1826 75.6265 74.1445C75.1693 72.4493 75.0551 68.2017 75.417 66.4874C76.6931 60.5065 81.2074 56.3351 87.7217 55.0969C89.8359 54.6969 94.7502 54.8494 96.8264 55.3636Z" fill="#FFFFFF" fill-opacity="1.000000" fill-rule="nonzero"/>
		<rect id="skills" width="81.000000" height="24.000000" transform="translate(20.000000 140.000000)" fill="#FFFFFF" fill-opacity="0"/>
	</g>

    <g id="docker">
		<!-- <defs>
			<clipPath id="clip1_3288">
				<rect id="icon" width="120.000000" height="120.000000" fill="white" fill-opacity="0"/>
			</clipPath>
		</defs>
		<rect id="skills" width="81.000000" height="24.000000" transform="translate(20.000000 140.000000)" fill="#FFFFFF" fill-opacity="0"/>
		<rect id="icon" width="120.000000" height="120.000000" fill="#FFFFFF" fill-opacity="0"/> -->
		<g clip-path="url(#clip1_3288)">
			<path id="Vector" d="M117.523 49.7463C114.821 47.8713 108.628 47.1682 103.787 48.1057C103.224 43.4182 100.634 39.3171 96.1306 35.6843L93.5413 33.8093L91.7394 36.5046C89.488 40.0203 88.3621 44.9421 88.6996 49.6296C88.812 51.2698 89.375 54.1995 91.064 56.7776C89.488 57.7151 86.2227 58.887 81.9445 58.887L0.54126 58.887L0.316284 59.8245C-0.472168 64.5116 -0.472168 79.1595 8.76038 90.4091C15.741 98.9633 26.0994 103.299 39.7227 103.299C69.2211 103.299 91.064 89.1195 101.31 63.4569C105.363 63.5741 114.033 63.4569 118.424 54.6678C118.536 54.4335 118.761 53.9647 119.549 52.2073L120 51.2698L117.523 49.7463ZM65.6183 16.7009L53.2339 16.7009L53.2339 28.4192L65.6183 28.4192L65.6183 16.7009ZM65.6183 30.7629L53.2339 30.7629L53.2339 42.4812L65.6183 42.4812L65.6183 30.7625L65.6183 30.7629ZM50.9816 30.7629L38.5972 30.7629L38.5972 42.4812L50.9816 42.4812L50.9816 30.7625L50.9816 30.7629ZM36.3448 30.7629L23.9601 30.7629L23.9601 42.4812L36.3448 42.4812L36.3448 30.7625L36.3448 30.7629ZM21.7081 44.825L9.32336 44.825L9.32336 56.5432L21.7076 56.5432L21.7076 44.8245L21.7081 44.825ZM36.3448 44.825L23.9601 44.825L23.9601 56.5432L36.3448 56.5432L36.3448 44.8245L36.3448 44.825ZM50.9816 44.825L38.5972 44.825L38.5972 56.5432L50.9816 56.5432L50.9816 44.8245L50.9816 44.825ZM65.6188 44.825L53.2335 44.825L53.2335 56.5432L65.6188 56.5432L65.6188 44.8245L65.6188 44.825ZM80.2555 44.825L67.8701 44.825L67.8701 56.5432L80.2555 56.5432L80.2555 44.8245L80.2555 44.825Z" fill="#2396ED" fill-opacity="1.000000" fill-rule="nonzero"/>
		</g>
	</g>

    <g id="express">
		<!-- <rect id="skills" width="81.000000" height="24.000000" transform="translate(20.000000 140.000000)" fill="#FFFFFF" fill-opacity="0"/>
		<rect id="icon" width="120.000000" height="120.000000" fill="#FFFFFF" fill-opacity="0"/> -->
		<path id="expressjs" d="M37.2184 73.389L37.2184 47.1349L38.6425 47.1349L38.6425 51.2648C38.8107 51.0815 38.9659 50.8871 39.1073 50.6826C40.2966 48.215 42.8053 46.6576 45.5441 46.6884C48.791 46.5914 51.4294 47.7935 52.98 50.6826C53.9667 52.4774 54.5096 54.4823 54.5636 56.5298C54.6174 58.5773 54.1808 60.6079 53.2899 62.4523C51.8453 65.6899 48.2772 67.2998 44.4573 66.7085C43.2684 66.6074 42.1239 66.2102 41.1281 65.5531C40.1322 64.896 39.3169 63.9999 38.7563 62.9467L38.7563 73.3879L37.2184 73.389ZM38.6425 56.4221L38.9614 59.505C39.5243 63.0139 41.5989 65.0873 44.856 65.4769C46.3855 65.7284 47.955 65.4417 49.2969 64.6655C50.6387 63.8894 51.6698 62.672 52.2145 61.2207C53.4813 58.2017 53.3879 54.7839 51.9639 51.8354C51.3824 50.5345 50.3936 49.4581 49.1464 48.769C47.8992 48.0798 46.4615 47.8154 45.0508 48.0155C43.7266 48.1119 42.4652 48.6183 41.4419 49.4644C40.4187 50.3103 39.6843 51.4541 39.3408 52.7367C39.0376 53.9503 38.8044 55.1805 38.6425 56.421L38.6425 56.4221ZM83.6409 59.9902C83.4249 61.8389 82.5449 63.546 81.1646 64.7943C79.7842 66.0427 77.9974 66.7472 76.1366 66.7769C70.1646 67.0776 67.3621 63.1118 66.9165 58.5354C66.6068 56.0503 67.0103 53.5282 68.0797 51.2635C68.8241 49.7101 70.0437 48.4338 71.5619 47.6199C73.0801 46.8059 74.818 46.4963 76.5239 46.7362C78.1456 46.874 79.6829 47.5184 80.9182 48.578C82.1536 49.6377 83.0243 51.0591 83.4073 52.641C83.7107 54.0819 83.934 55.5386 84.076 57.0043L68.3918 57.0043C68.1014 61.1534 70.3309 64.4893 73.4912 65.2936C77.4274 66.262 80.7916 64.5564 82.0128 60.814C82.2839 59.8536 82.7784 59.718 83.6511 59.9902L83.6409 59.9902ZM68.3805 55.6759L82.4093 55.6759C82.3215 51.2556 79.5691 48.0428 75.8358 48.0065C71.6206 47.9381 68.564 51.0221 68.3805 55.6759ZM86.5403 60.0872L87.9154 60.0872C87.9658 61.1002 88.2949 62.0797 88.8661 62.9178C89.4374 63.756 90.2288 64.4204 91.1531 64.8379C92.3138 65.3602 93.5775 65.614 94.85 65.5806C96.1223 65.547 97.3708 65.2269 98.5024 64.6442C99.1194 64.3665 99.6361 63.906 99.9828 63.3251C100.33 62.7443 100.49 62.0709 100.442 61.3961C100.477 60.7454 100.299 60.1007 99.9354 59.5601C99.5715 59.0193 99.0413 58.6121 98.425 58.3999C96.9121 57.837 95.3035 57.5272 93.762 57.0328C92.1581 56.5762 90.5897 56.0027 89.0695 55.317C86.5858 54.1049 86.432 49.3838 89.2438 47.8892C90.6835 47.0767 92.3036 46.6377 93.9565 46.6123C95.6094 46.5868 97.2423 46.9756 98.7064 47.7433C100.522 48.7458 101.526 50.7703 101.228 52.8243L100.048 52.8243C100.048 52.7675 99.9414 52.7173 99.9414 52.6592C99.7955 48.8997 96.6353 47.7239 93.2426 48.0543C92.2172 48.1682 91.2454 48.4781 90.334 48.936C89.7861 49.1863 89.3296 49.6006 89.0275 50.1217C88.7255 50.6427 88.5928 51.2449 88.6479 51.8446C88.649 52.4448 88.8361 53.0299 89.1833 53.5195C89.5305 54.0092 90.0209 54.3793 90.5869 54.5789C92.068 55.1222 93.6401 55.4708 95.1724 55.897L98.875 56.8654C99.7166 57.1415 100.454 57.6667 100.991 58.3713C101.528 59.076 101.838 59.927 101.88 60.8116C102.177 62.7997 101.163 64.7535 99.3694 65.6592C96.1317 67.4912 90.7988 67.007 88.4235 64.6909C87.2079 63.4685 86.53 61.8086 86.5437 60.0859L86.5403 60.0872ZM119.328 52.8254L118.038 52.8254C118.038 52.6512 117.97 52.4838 117.951 52.3505C117.93 51.3838 117.578 50.4535 116.953 49.7157C116.328 48.9779 115.468 48.4774 114.518 48.2981C112.726 47.7841 110.814 47.8761 109.079 48.5602C108.393 48.7565 107.79 49.1694 107.358 49.7374C106.926 50.3054 106.69 50.9979 106.685 51.7113C106.66 52.4117 106.878 53.0992 107.302 53.6575C107.726 54.2157 108.33 54.6104 109.011 54.7748L114.906 56.2877C115.543 56.4406 116.171 56.6316 116.785 56.8596C118.665 57.5432 119.941 59.2885 119.998 61.2833C120.026 62.2598 119.758 63.2219 119.23 64.0433C118.701 64.8647 117.936 65.5071 117.036 65.886C115.668 66.5074 114.185 66.8362 112.682 66.8513C111.18 66.8665 109.691 66.5675 108.31 65.9736C107.175 65.4841 106.217 64.6587 105.565 63.6083C104.914 62.5579 104.599 61.333 104.665 60.0985L105.925 60.0985C106.399 62.3827 107.967 64.2853 110.12 65.1853C112.271 66.0853 114.729 65.8643 116.686 64.5974C117.273 64.2921 117.761 63.8248 118.091 63.251C118.421 62.6771 118.579 62.0209 118.548 61.3596C118.577 60.7085 118.393 60.0654 118.024 59.5282C117.654 58.991 117.12 58.5889 116.502 58.3828C114.989 57.8199 113.38 57.5204 111.839 57.0157C110.226 56.566 108.648 55.9991 107.118 55.3193C104.693 54.1266 104.5 49.4442 107.263 47.9506C108.721 47.1041 110.373 46.6494 112.058 46.6306C113.743 46.6118 115.405 47.0297 116.881 47.8435C117.725 48.3474 118.405 49.0858 118.837 49.969C119.269 50.8521 119.435 51.8418 119.314 52.8175L119.328 52.8254ZM34.875 66.303C34.3673 66.4949 33.807 66.4944 33.2997 66.3015C32.7924 66.1086 32.3733 65.7367 32.1213 65.256L27.1086 58.3236L26.3818 57.3552L20.5647 65.2662C20.3276 65.7263 19.9312 66.0844 19.4493 66.2734C18.9677 66.4625 18.4335 66.4697 17.9468 66.2938L25.4408 56.2399L18.4685 47.1554C19.5029 46.7817 20.6559 47.1873 21.2312 48.1238L26.4263 55.1416L31.652 48.1511C31.8909 47.699 32.2876 47.3503 32.7667 47.1715C33.2458 46.9928 33.7739 46.9963 34.2506 47.1816L31.5449 50.7714L27.8799 55.5415C27.7782 55.6323 27.6968 55.7437 27.6411 55.868C27.5853 55.9926 27.5565 56.1274 27.5565 56.2638C27.5565 56.4001 27.5853 56.535 27.6411 56.6594C27.6968 56.7839 27.7782 56.8953 27.8799 56.9861L34.8601 66.303L34.875 66.303ZM66.6945 47.0586L66.6945 48.4257C65.7139 48.3613 64.7306 48.5034 63.8083 48.8425C62.886 49.1816 62.045 49.7104 61.3397 50.3948C60.6344 51.079 60.0804 51.9036 59.7135 52.8152C59.3466 53.7268 59.1749 54.7052 59.2095 55.6873C59.2095 58.8802 59.2095 62.0732 59.2095 65.2662L59.2095 66.3519L57.823 66.3519L57.823 47.144L59.1901 47.144L59.1901 51.0802C60.8671 48.2092 63.4554 47.144 66.7035 47.0665L66.6945 47.0586ZM0.00231934 56.1145L0.612915 53.0989C2.28992 47.1361 9.12549 44.6548 13.8282 48.3483C16.5819 50.5105 17.2689 53.574 17.1344 57.026L1.62122 57.026C1.37048 63.1917 5.81934 66.9147 11.5099 65.0144C13.3851 64.3308 14.7966 62.7723 15.2615 60.8356C15.5623 59.8673 16.059 59.7009 16.9681 59.9812C16.8165 61.1616 16.3992 62.2922 15.7476 63.2882C15.0961 64.2841 14.2272 65.1193 13.2063 65.731C11.5197 66.6534 9.58459 67.0189 7.67773 66.7751C5.77087 66.5315 3.98999 65.691 2.58948 64.3741C1.20422 62.8168 0.36792 60.8481 0.205078 58.769C0.205078 58.4272 0.0911865 58.1083 0.0113525 57.8007C0.00378418 57.2257 0 56.6637 0 56.1145L0.00231934 56.1145ZM1.6405 55.6975L15.6693 55.6975C15.5817 51.2283 12.7609 48.0577 8.99902 48.0281C4.81104 47.9711 1.81482 51.0721 1.63025 55.6782L1.6405 55.6975Z"  fill-opacity="1.000000" fill-rule="nonzero"/>
	</g>

    <g id="mongodb">
		<!-- <defs/>
		<rect id="icon" width="120.000000" height="120.000000" fill="#FFFFFF" fill-opacity="0"/> -->
		<path id="Vector" d="M84.741 47.7544C78.7206 19.869 66.1565 12.4436 62.9684 7.19458C61.2356 4.33936 59.4688 0 59.4688 0C59.296 2.47327 58.9897 4.03979 56.9795 5.91943C52.9537 9.68713 35.8456 24.3237 34.4086 56.0098C33.0684 85.5522 55.087 103.772 58.0134 105.655C60.2488 106.809 62.9867 105.677 64.2954 104.619C74.9069 96.968 89.4237 76.5686 84.7279 47.7544L84.741 47.7544Z" fill="#10AA50" fill-opacity="1.000000" fill-rule="nonzero"/>
		<path id="Vector" d="M60.3806 89.9189C59.8284 97.2345 59.4305 101.491 58.0249 105.663C58.0249 105.663 58.9515 112.624 59.5955 120L61.891 120C62.439 114.805 63.2754 109.648 64.396 104.556C61.4225 103.025 60.4933 96.3358 60.3806 89.9189Z" fill="#B8C4C2" fill-opacity="1.000000" fill-rule="nonzero"/>
		<path id="Vector" d="M64.3943 104.561C61.3894 103.104 60.5204 96.2809 60.3868 89.9189C61.1272 79.4301 61.3413 68.9075 61.0282 58.395C60.8711 52.8795 61.1067 7.30164 59.7351 0.62915C60.29 1.93457 61.6302 5.00146 62.9703 7.19165C66.1716 12.4434 78.7252 19.8689 84.7404 47.757C89.4282 76.4971 74.9979 96.8607 64.3943 104.561Z" fill="#12924F" fill-opacity="1.000000" fill-rule="nonzero"/>
		<rect id="skills" width="81.000000" height="24.000000" transform="translate(20.000000 140.000000)" fill="#FFFFFF" fill-opacity="0"/>
	</g>

    <g id="styledComponents">
		<path id="Vector" d="M68.7672 118.274C68.9471 117.867 69.4014 117.584 69.7313 117.241C74.7665 111.962 79.8445 106.73 84.811 101.386C86.3651 99.9506 87.5662 98.175 88.3199 96.1984C89.0737 94.2217 89.36 92.0973 89.1562 89.9916C89.0002 89.0898 88.7957 88.1973 88.5435 87.3176C87.1893 88.6031 85.9294 89.7731 84.661 90.9515C82.6898 92.7855 80.7272 94.6282 78.7389 96.4408C77.5664 97.6362 76.059 98.4479 74.4154 98.7684C72.772 99.089 71.0699 98.9034 69.5342 98.2363C67.9796 97.6652 66.627 96.65 65.6442 95.3169C64.6615 93.9836 64.0919 92.3912 64.0063 90.7372C63.9602 90.5244 63.8987 90.3153 63.822 90.1116C62.3093 91.3971 60.861 92.5798 59.4254 93.7969L29.5875 119.08C29.3818 119.255 29.1591 119.474 28.9662 119.645L68.7457 119.645L68.6858 119.607C68.4716 119.457 68.5829 118.668 68.7672 118.274Z" fill="#FFCEBF" fill-opacity="1.000000" fill-rule="nonzero"/>
		<path id="Vector" d="M27.1436 118.273C27.4974 117.812 27.9244 117.413 28.4077 117.091L69.7 82.059C72.5168 79.6678 75.3208 77.2638 78.1118 74.847C78.4567 74.6066 78.7269 74.2739 78.8917 73.8871C79.5593 70.9779 79.6541 67.9664 79.1703 65.021C78.7418 65.3209 78.5104 65.4496 78.3132 65.6595C74.9323 68.6848 71.5684 71.736 68.1702 74.7441C67.0444 75.8771 65.5885 76.624 64.0116 76.8773C62.4346 77.1306 60.818 76.8774 59.394 76.1539C57.9414 75.4681 56.7256 74.3657 55.9014 72.9867C55.0773 71.6078 54.682 70.0149 54.766 68.4106L54.766 67.0222C54.1447 67.4764 53.6904 67.7806 53.2662 68.1235C36.7396 81.3562 20.2158 94.579 3.69495 107.792C2.94934 108.387 2.05798 109.716 1.08093 108.426C0.104004 107.136 1.59094 106.605 2.34082 106.005C19.953 91.8721 37.5739 77.7523 55.2031 63.6455C58.0742 61.3444 58.2628 60.3801 56.3944 56.7249L55.2803 57.7704C52.2249 60.6116 49.1353 63.4141 46.1271 66.3022C44.8931 67.4926 43.3477 68.3096 41.6692 68.6588C39.9906 69.0082 38.2476 68.8757 36.6412 68.2766C35.0348 67.6775 33.6306 66.6362 32.5908 65.2732C31.5509 63.91 30.9178 62.2805 30.7646 60.573C30.1947 61.0015 29.7019 61.3143 29.2347 61.6786L3.09497 81.939C2.64417 82.3812 2.13 82.7538 1.56946 83.0446C1.14648 83.1725 0.692139 83.1498 0.283936 82.9803L0.283936 119.666L27.0922 119.666C26.9926 119.446 26.9453 119.205 26.9542 118.964C26.9631 118.722 27.028 118.486 27.1436 118.273Z" fill="#FFCEBF" fill-opacity="1.000000" fill-rule="nonzero"/>
		<path id="Vector" d="M99.5653 1.81543C98.8369 4.20227 98.1298 6.59351 97.4913 9.0061C96.9016 10.7109 96.9702 12.5747 97.6837 14.2317C98.3972 15.8885 99.7041 17.2191 101.348 17.9622C106.376 20.6052 112.042 21.7925 117.709 21.3903L117.709 2.22253C117.646 1.80237 117.669 1.37366 117.777 0.962769C117.897 0.730225 118.049 0.515381 118.227 0.324219L99.5482 0.324219C99.8353 0.658447 99.7368 1.24548 99.5653 1.81543Z" fill="#FF6196" fill-opacity="1.000000" fill-rule="nonzero"/>
		<path id="Vector" d="M62.0511 42.9923C61.9623 45.1317 61.2139 47.1914 59.9084 48.8888C55.2419 54.9127 49.8829 60.3667 43.9418 65.1383C42.9838 66.0251 41.7694 66.5857 40.473 66.7397C39.1765 66.8937 37.8646 66.6331 36.7256 65.9954C35.5917 65.5109 34.6357 64.6873 33.9889 63.6376C33.342 62.5879 33.0361 61.3636 33.1132 60.1332C33.2504 58.6218 33.8778 57.1968 34.9 56.0751C41.5436 49.7402 48.7415 44.0138 56.4075 38.9642C56.9095 38.5706 57.5227 38.3446 58.1602 38.3185C58.7977 38.2924 59.4272 38.4673 59.96 38.8185C60.6599 39.2532 61.226 39.8733 61.5951 40.61C61.9642 41.3468 62.1221 42.1714 62.0511 42.9923Z" fill="#FF87AF" fill-opacity="1.000000" fill-rule="nonzero"/>
		<path id="Vector" d="M56.9126 68.9646C56.8131 68.0175 56.9347 67.0601 57.2678 66.1677C57.601 65.2755 58.1365 64.4727 58.8324 63.8224C65.3373 57.8226 72.3163 52.3584 79.7013 47.4829C79.9242 47.3414 80.1299 47.2001 80.3741 47.0543C81.0192 46.5886 81.8008 46.3507 82.5959 46.3778C83.3911 46.405 84.1547 46.6957 84.7665 47.2043C85.3584 47.7058 85.7772 48.3811 85.9634 49.1343C86.1495 49.8875 86.0936 50.6801 85.8035 51.3995C84.8691 54.5115 83.1448 57.3284 80.7983 59.5757C76.0328 64.2705 71.1753 68.8708 66.2286 73.3741C65.4836 74.1401 64.505 74.6368 63.4469 74.7858C62.3888 74.9347 61.3112 74.7275 60.3835 74.1969C59.4089 73.6904 58.5791 72.9446 57.9719 72.0293C57.3647 71.114 57.0002 70.0594 56.9126 68.9646Z" fill="#FF87AF" fill-opacity="1.000000" fill-rule="nonzero"/>
		<path id="Vector" d="M87.8345 71.7963C86.6345 73.0818 85.4004 74.3074 84.2477 75.6229C83.9011 76.1313 83.6135 76.6777 83.3906 77.2513C84.0249 77.4398 84.7662 77.9369 85.2804 77.7612C87.8987 76.8828 90.4526 75.8286 93.328 74.7188C92.7024 76.1586 92.2311 77.4869 91.5669 78.704C88.8306 83.3026 85.4038 87.4534 81.4066 91.0111C79.8868 92.4767 78.3083 93.8779 76.6715 95.2148C75.8046 95.9343 74.7622 96.4105 73.6509 96.5948C72.5396 96.7792 71.3992 96.6649 70.3466 96.2639C69.2938 95.8629 68.3666 95.1895 67.6595 94.3124C66.9525 93.4354 66.4912 92.3864 66.3226 91.2725C66.254 90.6532 66.3087 90.0265 66.4838 89.4285C66.6588 88.8304 66.9508 88.2731 67.3425 87.7887C73.174 81.4562 79.8384 75.9451 87.1531 71.4062C87.2421 71.3718 87.3363 71.3529 87.4316 71.3506L87.8345 71.7963Z" fill="#FF87AF" fill-opacity="1.000000" fill-rule="nonzero"/>
		<path id="Vector" d="M97.6724 54.7283L105.004 22.1606L110.147 23.3647L107.494 31.4253C105.017 38.9243 102.51 46.4235 100.094 53.9312C99.6221 55.3196 99.005 55.5767 97.6724 54.7283Z" fill="#FF6196" fill-opacity="1.000000" fill-rule="nonzero"/>
		<path id="Vector" d="M89.3859 73.8833C90.1615 70.9222 90.9329 68.184 91.5842 65.4156C92.219 62.7311 93.4264 60.2155 95.1238 58.0409C96.165 56.6738 97.335 57.2181 98.5305 57.5138C99.6361 57.7837 99.9147 58.5936 99.9618 59.6564C100.136 62.5952 99.2411 65.4979 97.442 67.8282C95.3003 70.4834 92.5319 72.5642 89.3859 73.8833Z" fill="#FF6196" fill-opacity="1.000000" fill-rule="nonzero"/>
		<path id="Vector" d="M119.944 3.83398C120.008 2.87964 119.983 1.92139 119.871 0.971436C119.783 0.706177 119.607 0.478271 119.374 0.324463C119.184 0.169678 118.961 0.0599365 118.723 0.00305176C118.585 -0.0227051 118.393 0.118774 118.208 0.320068C118.03 0.511353 117.878 0.726196 117.758 0.958618C117.65 1.36951 117.627 1.79822 117.69 2.21851L117.69 21.382C112.023 21.7842 106.357 20.5968 101.329 17.9537C99.6849 17.2107 98.3781 15.8802 97.6646 14.2233C96.951 12.5663 96.8824 10.7025 97.4722 8.99768C98.1107 6.58508 98.8177 4.19397 99.5463 1.80713C99.7177 1.23718 99.8162 0.650024 99.5463 0.315796C99.3961 0.153076 99.1887 0.0548096 98.9678 0.041626C98.6847 0.0446777 98.4105 0.140991 98.1879 0.315796C97.8674 0.507568 97.6121 0.79126 97.4551 1.13C96.598 3.70117 95.8439 6.29797 95.1882 8.92053C94.9407 9.95398 94.874 11.0225 94.9911 12.0787C95.1569 13.9899 95.8677 15.8132 97.0389 17.3324C98.2102 18.8516 99.7928 20.0027 101.599 20.6492C102.409 20.9877 102.884 21.3219 102.657 22.3889C102.344 23.743 102.04 25.0972 101.732 26.4556C99.632 35.6603 97.5436 44.8691 95.4668 54.0823C95.4082 54.493 95.2275 54.8768 94.9482 55.1836C93.5793 56.2717 92.4292 57.6095 91.5586 59.126C90.4493 61.1273 89.6818 63.2998 89.2875 65.5538C89.2118 66.2728 88.952 66.9602 88.5331 67.5494C88.1143 68.1387 87.5505 68.61 86.8964 68.9177C85.1094 69.8219 83.4681 70.9917 81.4841 72.2087C81.6163 69.8228 81.5906 67.4307 81.407 65.0482C81.256 64.3153 81.2881 63.5564 81.5004 62.8389C81.7126 62.1213 82.0985 61.4672 82.624 60.9343C85.2375 58.3452 87.1005 55.0961 88.0148 51.5326C88.2878 50.7065 88.3628 49.8279 88.2334 48.9675C88.104 48.1072 87.7739 47.2894 87.27 46.5802C86.7661 45.871 86.1023 45.2904 85.3325 44.8851C84.5625 44.48 83.7081 44.2616 82.8383 44.2478C81.4298 44.2321 80.047 44.625 78.8573 45.379C74.7683 48.1713 70.7504 51.0662 66.8073 54.0609C64.4633 55.8264 62.2563 57.7804 59.9852 59.6317C59.8873 59.5265 59.8025 59.41 59.7324 59.2845C59.689 58.9691 59.604 58.6606 59.4796 58.3676C57.5812 55.4364 58.8967 53.3066 60.958 51.1169C63.1053 48.866 64.2919 45.8673 64.2661 42.7565C64.3328 41.1715 63.8363 39.614 62.8649 38.3599C62.3474 37.7233 61.7096 37.1947 60.9879 36.8043C59.9629 36.2434 58.7908 36.0092 57.6289 36.1333C56.4669 36.2573 55.3707 36.7338 54.4873 37.4985L53.2917 38.3556C50.562 40.3097 47.7981 42.2123 45.1713 44.3035C41.3364 47.3651 37.5841 50.5288 33.9183 53.7909C32.2042 55.3036 30.953 57.369 29.1746 58.7747C19.9014 66.098 10.5297 73.2886 1.19226 80.5264C0.871094 80.7179 0.575928 80.9497 0.313721 81.2163C0.286743 81.2552 0.263794 81.2969 0.245117 81.3406C0.0480957 81.7991 -0.119019 82.5575 0.112305 82.8361C0.169067 82.8965 0.237671 82.9446 0.313721 82.9774C0.721924 83.1469 1.17627 83.1696 1.59924 83.0417C2.15979 82.751 2.67395 82.3783 3.12488 81.9362L29.2645 61.6757C29.7317 61.3115 30.2245 60.9814 30.7944 60.5701C30.9476 62.2777 31.5807 63.9072 32.6206 65.2703C33.6604 66.6334 35.0646 67.6747 36.671 68.2737C38.2773 68.8728 40.0205 69.0054 41.699 68.656C43.3774 68.3066 44.9229 67.4897 46.1569 66.2994C49.1565 63.4113 52.2548 60.6086 55.3101 57.7676L56.4242 56.722C58.2926 60.3773 58.104 61.3414 55.2329 63.6426C37.5894 77.761 19.9585 91.8821 2.3407 106.006C1.5907 106.606 0.108032 107.15 1.08081 108.427C2.05359 109.704 2.9491 108.389 3.6947 107.793C20.2242 94.5918 36.7423 81.3734 53.2489 68.1378C53.6774 67.7949 54.1273 67.4907 54.7487 67.0365L54.7487 68.4249C54.6647 70.0292 55.0599 71.6221 55.884 73.001C56.7083 74.38 57.9241 75.4825 59.3767 76.1682C60.8007 76.8917 62.4172 77.1449 63.9943 76.8916C65.5712 76.6383 67.0271 75.8914 68.1528 74.7584C71.551 71.7588 74.9149 68.6992 78.2959 65.6738C78.5101 65.481 78.7588 65.3353 79.153 65.0353C79.6366 67.9807 79.542 70.9922 78.8744 73.9014C78.7096 74.2882 78.4393 74.6208 78.0945 74.8613C75.3005 77.2753 72.4966 79.6793 69.6826 82.0732L28.4076 117.109C27.9243 117.432 27.4972 117.831 27.1434 118.292C27.0305 118.502 26.9672 118.735 26.9583 118.974C26.9493 119.212 26.9951 119.449 27.092 119.667C27.2856 119.812 27.5094 119.912 27.7468 119.959C27.9843 120.005 28.2291 119.998 28.4633 119.937C28.6481 119.884 28.8181 119.788 28.9603 119.659C29.1746 119.487 29.3889 119.269 29.5817 119.093L59.4196 93.8104C60.8551 92.5935 62.3036 91.3936 63.8162 90.1252C63.8928 90.329 63.9543 90.5381 64.0005 90.7509C64.0861 92.4049 64.6556 93.9973 65.6383 95.3304C66.6211 96.6637 67.9738 97.6788 69.5284 98.25C71.0642 98.9171 72.7661 99.1027 74.4097 98.7821C76.0531 98.4614 77.5605 97.6499 78.733 96.4545C80.7213 94.6418 82.684 92.7992 84.6552 90.9651C85.9407 89.7866 87.1835 88.604 88.5376 87.3312C88.7898 88.2108 88.9944 89.1035 89.1504 90.0052C89.3473 92.104 89.0577 94.22 88.3042 96.1887C87.5505 98.1575 86.3533 99.9259 84.8052 101.357C79.8386 106.705 74.7606 111.937 69.7255 117.212C69.3955 117.555 68.9413 117.838 68.7614 118.245C68.5813 118.652 68.4657 119.449 68.6799 119.62L68.7399 119.659C69.1892 119.877 69.6946 119.954 70.1884 119.877C70.3267 119.849 70.45 119.771 70.5354 119.659C70.6554 119.535 70.7711 119.38 70.8868 119.265C74.9663 115.048 79.0673 110.853 83.1168 106.606C84.7513 104.95 86.2881 103.2 87.7191 101.365C89.5851 99.2996 90.8224 96.7438 91.2855 93.9988C91.7485 91.2538 91.4181 88.4336 90.333 85.87C90.2164 85.2983 90.3304 84.7039 90.6501 84.2159C90.9287 83.736 91.2373 83.2688 91.5543 82.806C92.569 81.4886 93.4141 80.049 94.0697 78.5209C95.3368 74.7704 97.2817 71.2844 99.8076 68.2363C100.969 66.764 101.768 65.0394 102.14 63.2017C102.512 61.3638 102.447 59.4642 101.95 57.6561C101.775 56.9688 101.775 56.2482 101.95 55.5607C104.119 48.8458 106.351 42.1523 108.562 35.4545L111.519 26.4813L112.432 23.7087C114.377 23.7087 116.211 23.6702 118.037 23.7087C119.554 23.7516 120.017 23.0403 120 21.5662C119.91 15.6526 119.944 9.74329 119.944 3.83398ZM43.9371 65.1382C42.979 66.025 41.7648 66.5856 40.4683 66.7396C39.1719 66.8936 37.86 66.6329 36.7208 65.9952C35.587 65.5107 34.631 64.6871 33.9841 63.6375C33.3373 62.5878 33.0314 61.3636 33.1084 60.1331C33.2456 58.6217 33.8732 57.1967 34.8954 56.075C41.5388 49.7402 48.7368 44.0137 56.4028 38.9641C56.8212 38.6683 57.2971 38.4639 57.7998 38.3641C58.1368 38.302 58.4825 38.302 58.8197 38.3641C59.2234 38.4429 59.6086 38.5969 59.9552 38.8184C60.656 39.2534 61.2224 39.8743 61.5916 40.6118C61.9607 41.3494 62.1182 42.1748 62.0464 42.9965C61.9575 45.136 61.2092 47.1956 59.9038 48.8929C55.2371 54.9154 49.8779 60.3679 43.9371 65.1382ZM66.2202 73.4043C65.4752 74.1704 64.4966 74.667 63.4385 74.8159C62.3804 74.9648 61.3027 74.7577 60.3751 74.2271C59.3988 73.7195 58.5679 72.9717 57.9606 72.054C57.3533 71.1362 56.9897 70.0791 56.9042 68.9819C56.8047 68.0348 56.9263 67.0774 57.2594 66.1852C57.5925 65.2928 58.1281 64.49 58.824 63.8397C65.3289 57.8401 72.3079 52.3757 79.6929 47.5002C79.9158 47.3589 80.1215 47.2174 80.3657 47.0718C81.0107 46.6061 81.7924 46.368 82.5875 46.3951C83.3827 46.4224 84.1462 46.7131 84.7581 47.2217C85.35 47.7231 85.7688 48.3984 85.955 49.1516C86.1411 49.9048 86.0852 50.6974 85.795 51.4169C84.8607 54.5288 83.1364 57.3457 80.7899 59.5931C76.0634 64.3154 71.1482 68.8619 66.2288 73.3872L66.2202 73.4043ZM91.55 78.7223C88.8175 83.3136 85.3967 87.4585 81.407 91.0122C79.8872 92.4778 78.3088 93.879 76.6719 95.2161C75.8049 95.9354 74.7626 96.4116 73.6512 96.5959C72.5399 96.7803 71.3995 96.666 70.3469 96.265C69.2942 95.864 68.3669 95.1906 67.6599 94.3135C66.9529 93.4365 66.4916 92.3875 66.323 91.2737C66.2544 90.6543 66.3091 90.0276 66.4841 89.4296C66.6592 88.8315 66.9512 88.2742 67.3429 87.7898C73.1743 81.4573 79.8387 75.9462 87.1534 71.4075C87.2424 71.3729 87.3367 71.3541 87.432 71.3517L87.8605 71.7803C86.6606 73.0658 85.4265 74.2914 84.2738 75.6069C83.9271 76.1154 83.6396 76.6617 83.4167 77.2354C84.0509 77.4238 84.7922 77.9209 85.3065 77.7452C87.3762 77.051 89.4117 76.2454 91.5929 75.3883L93.3541 74.7028C92.6942 76.1597 92.2229 77.4882 91.5586 78.7051L91.55 78.7223ZM97.4336 67.8593C95.8352 69.8942 93.8318 71.5752 91.55 72.7958C90.8445 73.1901 90.1202 73.5586 89.3774 73.9014C90.1403 70.9832 90.903 68.2792 91.55 65.5453L91.5758 65.4338C92.2106 62.7493 93.418 60.2335 95.1154 58.059C96.1566 56.692 97.3265 57.2362 98.5221 57.5319C99.6277 57.8019 99.9062 58.6118 99.9534 59.6746C100.129 62.6108 99.2372 65.5117 97.4423 67.8422L97.4336 67.8593ZM107.461 31.4351C104.984 38.9341 102.477 46.4332 100.06 53.9409C99.6062 55.3507 98.9891 55.6079 97.6565 54.7594L104.011 26.5071L104.989 22.1704L110.131 23.3745L109.098 26.5071L107.461 31.4351Z" fill="#000000" fill-opacity="1.000000" fill-rule="nonzero"/>
	</g>

    <g id="githubTech">
        <!-- <rect x="0" y="0" width="105" height="100" /> -->
        <path fill-rule="evenodd" clip-rule="evenodd" d="M44 0C19.69 0 0 19.69 0 44C0 63.47 12.595 79.915 30.085 85.745C32.285 86.13 33.11 84.81 33.11 83.655C33.11 82.61 33.055 79.145 33.055 75.46C22 77.495 19.14 72.765 18.26 70.29C17.765 69.025 15.62 65.12 13.75 64.075C12.21 63.25 10.01 61.215 13.695 61.16C17.16 61.105 19.635 64.35 20.46 65.67C24.42 72.325 30.745 70.455 33.275 69.3C33.66 66.44 34.815 64.515 36.08 63.415C26.29 62.315 16.06 58.52 16.06 41.69C16.06 36.905 17.765 32.945 20.57 29.865C20.13 28.765 18.59 24.255 21.01 18.205C21.01 18.205 24.695 17.05 33.11 22.715C36.63 21.725 40.37 21.23 44.11 21.23C47.85 21.23 51.59 21.725 55.11 22.715C63.525 16.995 67.21 18.205 67.21 18.205C69.63 24.255 68.09 28.765 67.65 29.865C70.455 32.945 72.16 36.85 72.16 41.69C72.16 58.575 61.875 62.315 52.085 63.415C53.68 64.79 55.055 67.43 55.055 71.555C55.055 77.44 55 82.17 55 83.655C55 84.81 55.825 86.185 58.025 85.745C66.7597 82.796 74.3497 77.1822 79.7268 69.6937C85.1039 62.2052 87.9974 53.219 88 44C88 19.69 68.31 0 44 0Z" fill="black"/>
    </g>

     <!-- Social icons -->
    <g id="twitter">
        <path d="M15.875 0.875C7.59152 0.875 0.875 7.59152 0.875 15.875C0.875 24.1585 7.59152 30.875 15.875 30.875C24.1585 30.875 30.875 24.1585 30.875 15.875C30.875 7.59152 24.1585 0.875 15.875 0.875ZM23.0837 12.1819C23.0937 12.3393 23.0937 12.5033 23.0937 12.6641C23.0937 17.5792 19.3504 23.2411 12.51 23.2411C10.4007 23.2411 8.44531 22.6283 6.79799 21.5737C7.09933 21.6071 7.38728 21.6205 7.69531 21.6205C9.43638 21.6205 11.0368 21.0312 12.3125 20.0335C10.6786 20 9.3058 18.9286 8.83705 17.4554C9.4096 17.5391 9.92522 17.5391 10.5145 17.3884C9.67319 17.2175 8.91699 16.7605 8.37438 16.0953C7.83178 15.43 7.53623 14.5973 7.53795 13.7388V13.692C8.03013 13.9699 8.60938 14.1406 9.2154 14.1641C8.70595 13.8245 8.28814 13.3645 7.99903 12.8249C7.70993 12.2852 7.55845 11.6825 7.55804 11.0703C7.55804 10.3772 7.73884 9.74442 8.06362 9.19531C8.99744 10.3449 10.1627 11.2851 11.4837 11.9548C12.8047 12.6245 14.2518 13.0088 15.731 13.0826C15.2054 10.5547 17.0938 8.50893 19.3638 8.50893C20.4353 8.50893 21.3996 8.95759 22.0792 9.6808C22.9196 9.52344 23.7232 9.2087 24.4397 8.78683C24.1618 9.64732 23.5792 10.3739 22.8058 10.8326C23.5558 10.7522 24.279 10.5446 24.9487 10.2533C24.4431 10.9967 23.8103 11.6562 23.0837 12.1819Z"/>
    </g>
    <g id="linkedIn">
        <path d="M15 0.600098C7.04698 0.600098 0.599976 7.0471 0.599976 15.0001C0.599976 22.9531 7.04698 29.4001 15 29.4001C22.953 29.4001 29.4 22.9531 29.4 15.0001C29.4 7.0471 22.953 0.600098 15 0.600098ZM11.475 20.9686H8.55898V11.5846H11.475V20.9686ZM9.99898 10.4326C9.07798 10.4326 8.48248 9.7801 8.48248 8.9731C8.48248 8.1496 9.09598 7.5166 10.0365 7.5166C10.977 7.5166 11.553 8.1496 11.571 8.9731C11.571 9.7801 10.977 10.4326 9.99898 10.4326ZM22.125 20.9686H19.209V15.7681C19.209 14.5576 18.786 13.7356 17.7315 13.7356C16.926 13.7356 16.4475 14.2921 16.236 14.8276C16.158 15.0181 16.1385 15.2881 16.1385 15.5566V20.9671H13.221V14.5771C13.221 13.4056 13.1835 12.4261 13.1445 11.5831H15.678L15.8115 12.8866H15.87C16.254 12.2746 17.1945 11.3716 18.768 11.3716C20.6865 11.3716 22.125 12.6571 22.125 15.4201V20.9686Z"/>
    </g>
    <g id="github">
        <path d="M15 0C6.71252 0 0 6.7124 0 15C0 21.6375 4.29376 27.2437 10.2562 29.2312C11.0062 29.3625 11.2875 28.9126 11.2875 28.5188C11.2875 28.1626 11.2687 26.9812 11.2687 25.7251C7.5 26.4187 6.52502 24.8062 6.22498 23.9624C6.05627 23.5312 5.32501 22.2 4.6875 21.8438C4.16248 21.5625 3.41248 20.8687 4.66876 20.8501C5.84998 20.8313 6.69373 21.9375 6.97498 22.3875C8.32501 24.6562 10.4813 24.0188 11.3438 23.625C11.475 22.6499 11.8688 21.9937 12.3 21.6187C8.96252 21.2437 5.47498 19.95 5.47498 14.2124C5.47498 12.5813 6.05627 11.2312 7.01251 10.1812C6.86249 9.80615 6.33752 8.2688 7.16248 6.2063C7.16248 6.2063 8.41876 5.8125 11.2875 7.74365C12.4875 7.40625 13.7625 7.23755 15.0375 7.23755C16.3125 7.23755 17.5875 7.40625 18.7875 7.74365C21.6562 5.7937 22.9125 6.2063 22.9125 6.2063C23.7375 8.2688 23.2125 9.80615 23.0625 10.1812C24.0187 11.2312 24.6 12.5625 24.6 14.2124C24.6 19.9688 21.0938 21.2437 17.7562 21.6187C18.3 22.0874 18.7687 22.9875 18.7687 24.3938C18.7687 26.3999 18.75 28.0125 18.75 28.5188C18.75 28.9126 19.0312 29.3813 19.7812 29.2312C22.759 28.2258 25.3465 26.312 27.1796 23.7593C29.0127 21.2063 29.9991 18.1428 30 15C30 6.7124 23.2875 0 15 0Z"  fill-opacity="1.000000" fill-rule="evenodd"/>
    </g>


    <g id="instagram">
       <path d="M15.6516 2.09998H5.34844C3.55687 2.09998 2.1 3.55628 2.1 5.34715V8.77799V15.6528C2.1 17.4437 3.55687 18.9 5.34844 18.9H15.6516C17.4431 18.9 18.9 17.4437 18.9 15.6528V8.77143V5.34058C18.8934 3.55628 17.4366 2.09998 15.6516 2.09998ZM16.5834 4.03516H16.9575V4.40251V6.88217L14.1159 6.88873L14.1094 4.04172L16.5834 4.03516ZM8.09812 8.77143C8.63625 8.03016 9.50906 7.53816 10.4934 7.53816C11.4778 7.53816 12.3506 8.0236 12.8887 8.77143C13.2431 9.25687 13.4466 9.85382 13.4466 10.4967C13.4466 12.1236 12.1209 13.4552 10.4869 13.4552C8.85281 13.4552 7.54031 12.1236 7.54031 10.4967C7.54031 9.85382 7.75031 9.25687 8.09812 8.77143ZM17.2594 15.6462C17.2594 16.5318 16.5375 17.2534 15.6516 17.2534H5.34844C4.4625 17.2534 3.74062 16.5318 3.74062 15.6462V8.77143H6.2475C6.03094 9.30279 5.90625 9.88662 5.90625 10.4967C5.90625 13.0288 7.96687 15.0887 10.5 15.0887C13.0331 15.0887 15.0937 13.0288 15.0937 10.4967C15.0937 9.88662 14.9691 9.30279 14.7525 8.77143H17.2594V15.6462Z"/>
    </g>

    <g id="telegram">
        <path d="M18.9057 4.76449L16.3705 16.7208C16.1791 17.5644 15.6804 17.7745 14.9717 17.3772L11.1085 14.5305L9.24472 16.3235C9.0383 16.5299 8.86608 16.7022 8.46824 16.7022L8.74607 12.7681L15.9054 6.29885C16.2169 6.02162 15.8376 5.86741 15.4218 6.14524L6.57084 11.7186L2.76043 10.5257C1.93174 10.2671 1.91674 9.69701 2.93325 9.29917L17.837 3.55716C18.5271 3.29854 19.1308 3.71018 18.9057 4.76449Z" />
    </g>

    <g id="vk">
        <path d="M18.1696 13.9941C17.8038 13.5391 17.3881 13.1314 16.9861 12.737C16.8432 12.5968 16.6954 12.4518 16.5529 12.3076C16.1439 11.8932 16.129 11.7375 16.4529 11.2668C16.6769 10.9424 16.9145 10.6175 17.1442 10.3033C17.3526 10.0183 17.568 9.72351 17.7746 9.42777L17.817 9.36697C18.2117 8.80103 18.6199 8.21583 18.8372 7.50988C18.8936 7.32363 18.9528 7.04955 18.8174 6.82036C18.682 6.59137 18.4195 6.52151 18.2337 6.48888C18.1418 6.47273 18.0506 6.47053 17.9659 6.47053L15.3809 6.46861L15.3595 6.46842C14.9687 6.46842 14.7053 6.65927 14.5544 7.05194C14.4103 7.42713 14.252 7.82665 14.0714 8.20653C13.7119 8.96298 13.2554 9.83425 12.5948 10.5609L12.5669 10.5918C12.4889 10.6787 12.4005 10.777 12.3359 10.777C12.326 10.777 12.3152 10.7751 12.303 10.7711C12.1662 10.7159 12.0744 10.3726 12.0785 10.213C12.0786 10.2108 12.0786 10.2086 12.0786 10.2064L12.0768 7.1105C12.0768 7.09976 12.0761 7.08913 12.0747 7.07849C12.009 6.57522 11.8633 6.26195 11.3129 6.15026C11.2983 6.14724 11.2834 6.14575 11.2685 6.14575H8.5806C8.14268 6.14575 7.90138 6.33018 7.67456 6.60623C7.61334 6.68002 7.48589 6.83364 7.54906 7.01998C7.61315 7.20911 7.8212 7.24955 7.88894 7.26268C8.22522 7.32899 8.41477 7.54213 8.46846 7.91453C8.56219 8.56121 8.57371 9.25144 8.50471 10.0868C8.48547 10.3189 8.44742 10.4982 8.38471 10.6514C8.37015 10.6872 8.31849 10.8038 8.26582 10.8039C8.24908 10.8039 8.20067 10.7971 8.11248 10.7341C7.90397 10.5861 7.75142 10.3749 7.57357 10.114C6.96853 9.22796 6.46074 8.25191 6.02097 7.12938C5.85787 6.71615 5.55327 6.48481 5.16289 6.478C4.73395 6.47125 4.34504 6.46799 3.97413 6.46799C3.56886 6.46799 3.19314 6.47187 2.82625 6.47978C2.51217 6.48553 2.29492 6.58308 2.18061 6.76996C2.06611 6.95697 2.07356 7.20264 2.20276 7.50001C3.23702 9.88254 4.17478 11.6149 5.24345 13.1171C5.99225 14.1683 6.74333 14.8959 7.60686 15.4068C8.51664 15.9461 9.5362 16.2083 10.7237 16.2083C10.8583 16.2083 10.9975 16.2048 11.1379 16.198C11.8279 16.1632 12.0839 15.9044 12.1163 15.2082C12.1317 14.8525 12.1692 14.4793 12.338 14.1611C12.4445 13.9606 12.5439 13.9606 12.5765 13.9606C12.6394 13.9606 12.7174 13.9906 12.8011 14.0468C12.9513 14.1484 13.0801 14.2845 13.1857 14.4034C13.285 14.5163 13.3833 14.6304 13.4817 14.7446C13.6939 14.9909 13.9134 15.2456 14.1427 15.4871C14.6445 16.0162 15.1973 16.2488 15.8323 16.1983H18.2023C18.2073 16.1983 18.2124 16.1981 18.2175 16.1978C18.4536 16.1817 18.6582 16.0459 18.7786 15.8254C18.9279 15.5522 18.9249 15.2037 18.7706 14.893C18.5956 14.5415 18.3685 14.2413 18.1696 13.9941Z"/>
    </g>

    <!-- Logo -->
	<g id="logo">
		<path d="M18.3125 42.0645L27.2623 6.6875L31.4375 7.87244L22.4878 43.3125L18.3125 42.0645Z"  fill-opacity="1.000000" fill-rule="evenodd"/>
		<path d="M13.5025 12.6875L16.5625 15.9277L7.99501 25.0001L16.5625 34.0721L13.5025 37.3125L1.875 25.0001L13.5025 12.6875Z"  fill-opacity="1.000000" fill-rule="evenodd"/>
		<path d="M36.4976 12.6875L33.4375 15.9277L42.0051 25.0001L33.4375 34.0721L36.4976 37.3125L48.125 25.0001L36.4976 12.6875Z"  fill-opacity="1.000000" fill-rule="evenodd"/>
	</g>

    <!-- Preview Link -->
    <g id="preview">
        <path id="Vector" d="M9.62012 7.04688C8.9375 6.36459 8.01196 5.98129 7.04688 5.98129C6.08179 5.98129 5.15601 6.36459 4.47339 7.04688L1.89941 9.62021C1.2168 10.3028 0.833252 11.2286 0.833252 12.194C0.833252 13.1593 1.2168 14.0851 1.89941 14.7677C2.58203 15.4503 3.50781 15.8338 4.47314 15.8338C5.43848 15.8338 6.36426 15.4503 7.04688 14.7677L8.3335 13.481"  stroke-opacity="1.000000" stroke-width="1.666667" stroke-linejoin="round" stroke-linecap="round" />
	    <path id="Vector" d="M7.04688 9.62027C7.72949 10.3026 8.65503 10.6859 9.62012 10.6859C10.5854 10.6859 11.511 10.3026 12.1936 9.62027L14.7678 7.04694C15.4502 6.36432 15.8337 5.43851 15.8337 4.47318C15.8337 3.50784 15.4502 2.58203 14.7678 1.89941C14.0852 1.21683 13.1592 0.833344 12.1938 0.833344C11.2285 0.833344 10.3027 1.21683 9.62012 1.89941L8.3335 3.1861"  stroke-opacity="1.000000" stroke-width="1.666667" stroke-linejoin="round" stroke-linecap="round"/>
    </g>

    <g id="githubSmall">
        <path id="Vector" d="M10 0C4.4751 0 0 4.47501 0 10C0 14.425 2.86255 18.1625 6.8374 19.4875C7.3374 19.575 7.5249 19.275 7.5249 19.0125C7.5249 18.775 7.51245 17.9875 7.51245 17.15C5 17.6125 4.3501 16.5375 4.1499 15.975C4.0376 15.6875 3.55005 14.8 3.125 14.5625C2.7749 14.375 2.2749 13.9125 3.11255 13.9C3.8999 13.8875 4.4624 14.625 4.6499 14.925C5.55005 16.4375 6.98755 16.0125 7.5625 15.75C7.6499 15.1 7.9126 14.6625 8.19995 14.4125C5.9751 14.1625 3.6499 13.3 3.6499 9.47501C3.6499 8.38751 4.0376 7.48749 4.67505 6.78751C4.57495 6.53751 4.2251 5.51251 4.7749 4.13751C4.7749 4.13751 5.61255 3.875 7.5249 5.16251C8.32495 4.9375 9.17505 4.82501 10.0249 4.82501C10.875 4.82501 11.7251 4.9375 12.5249 5.16251C14.4375 3.86249 15.2749 4.13751 15.2749 4.13751C15.825 5.51251 15.4751 6.53751 15.375 6.78751C16.0125 7.48749 16.3999 8.375 16.3999 9.47501C16.3999 13.3125 14.0625 14.1625 11.8374 14.4125C12.2 14.725 12.5125 15.325 12.5125 16.2625C12.5125 17.6 12.5 18.675 12.5 19.0125C12.5 19.275 12.6875 19.5875 13.1875 19.4875C15.1726 18.8173 16.8977 17.5414 18.1196 15.8395C19.3418 14.1375 19.9995 12.0952 20 10C20 4.47501 15.5249 0 10 0Z"  fill-opacity="1.000000" fill-rule="evenodd"/>
    </g>
</svg>
