<?xml version="1.0" encoding="utf-8"?>
<svg version="1.1" id="Layer_1" xmlns="http://www.w3.org/2000/svg" x="0px" y="0px"
	 viewBox="0 0 1559.1 2522.8" style="enable-background:new 0 0 1559.1 2522.8;" xml:space="preserve">
	 <!-- Skills icons -->
	<g id="redux">
		<path d="M78.8,78.1c4.2-0.4,7.4-4,7.2-8.4c-0.2-4.3-3.8-7.8-8.1-7.8h-0.3c-4.5,0.1-7.9,3.9-7.8,8.4
			c0.1,2.2,1,4,2.3,5.3c-4.9,9.7-12.4,16.8-23.6,22.7c-7.6,4-15.6,5.5-23.5,4.5c-6.5-0.9-11.6-3.8-14.8-8.6c-4.6-7-5-14.7-1.1-22.3
			c2.7-5.5,7.1-9.5,9.8-11.5c-0.6-1.9-1.4-5.1-1.9-7.4C-3.9,68.1-1.7,88.6,4.6,98.3C9.4,105.5,19,110,29.7,110c2.9,0,5.8-0.3,8.7-1
			C56.8,105.3,70.8,94.4,78.8,78.1z M104.2,60.2C93.2,47.3,77,40.3,58.6,40.3h-2.3c-1.3-2.6-4.1-4.4-7.1-4.4h-0.3
			c-4.5,0.1-7.9,3.9-7.8,8.4c0.1,4.3,3.8,7.8,8.1,7.8h0.3c3.2-0.1,5.9-2.2,7.1-4.9h2.6c11,0,21.4,3.2,30.7,9.4
			c7.2,4.8,12.4,11,15.3,18.5c2.5,6.1,2.3,12-0.3,17c-4,7.6-10.8,11.8-19.8,11.8c-5.8,0-11.3-1.7-14.1-3c-1.6,1.4-4.5,3.8-6.5,5.2
			c6.2,2.9,12.6,4.5,18.6,4.5c13.9,0,24.1-7.6,28-15.3C115.3,86.9,115,72.4,104.2,60.2z M30.9,80.5c0.1,4.3,3.8,7.8,8.1,7.8h0.2
			c4.5-0.1,7.9-3.9,7.8-8.4c-0.1-4.3-3.8-7.8-8.1-7.8h-0.3c-0.3,0-0.7,0-1,0.1c-5.9-9.8-8.4-20.5-7.5-32c0.6-8.7,3.5-16.2,8.5-22.4
			c4.2-5.3,12.3-7.9,17.7-8.1c15.4-0.2,21.9,18.9,22.3,26.5c1.9,0.4,5.1,1.4,7.2,2.2C84.1,15,69.7,2.9,55.8,2.9
			c-13,0-25,9.4-29.7,23.2c-6.6,18.5-2.3,36.2,5.8,50.2C31.1,77.4,30.7,78.9,30.9,80.5L30.9,80.5z" fill="#764ABC"/>
	</g>
	<g id="css">
		<path d="M15.9,101.9L6.8,0.3h100.3L98,101.9l-41.1,11.3L15.9,101.9z" fill="#1572B6"/>
		<path d="M57,104.5l33.2-9.1L98,8.6H57C57,8.6,57,104.5,57,104.5z" fill="#33A9DC"/>
		<path d="M57,45.4h16.6l1.1-12.8H57V20.2h31.5l-0.3,3.3L85,57.8H57V45.4z" fill="#FFFFFF"/>
		<path d="M57,77.8L57,77.8l-14-3.7L42,64.2H29.5l1.8,19.6L57,90.9H57L57,77.8L57,77.8z" fill="#EBEBEB"/>
		<path d="M72.4,57.3L70.9,74l-14,3.7v13l25.8-7l0.2-2.1l2.1-24.3H72.4z" fill="#EBEBEB"/>
		<path d="M57,20.2v12.5H26.6l-0.3-2.8l-0.6-6.4l-0.3-3.3C25.5,20.2,57,20.2,57,20.2z M57,45.4v12.5H43.2l-0.3-2.8
			l-0.6-6.3L42,45.5h15V45.4z" fill="#EBEBEB"/>
	</g>

	<g id="js">
		<path d="M0.2,0h113.4v113.4H0.2V0z" fill="#F5DE19"/>
		<path d="M76.4,88.6c1,2,2.5,3.6,4.3,4.8c1.9,1.1,4,1.7,6.2,1.7c4.4,0,7.2-2.2,7.2-5.3c0-3.6-2.9-4.9-7.8-7.1l-2.7-1.1
			c-7.7-3.3-12.8-7.4-12.8-16.1c0-8,6.1-14.1,15.6-14.1c3.1-0.2,6.2,0.5,8.9,2c2.7,1.5,4.9,3.8,6.3,6.5l-8.3,5.3
			c-0.5-1.4-1.5-2.5-2.7-3.3s-2.7-1.2-4.1-1.2c-0.6-0.1-1.3,0-1.9,0.2s-1.2,0.5-1.7,1c-0.5,0.4-0.9,1-1.1,1.5
			c-0.3,0.6-0.4,1.2-0.4,1.9c0,3.2,2,4.5,6.6,6.5l2.7,1.1c9.1,3.9,14.2,7.8,14.2,16.7c0,9.6-7.5,14.8-17.7,14.8
			c-3.9,0.3-7.9-0.6-11.3-2.6c-3.4-1.9-6.3-4.8-8.1-8.3L76.4,88.6z M38.7,89.6c1.7,3,3.2,5.5,6.9,5.5c3.5,0,5.7-1.4,5.7-6.7V52.1H62
			v36.4c0,11-6.5,16.1-15.9,16.1c-3.3,0.2-6.6-0.6-9.5-2.4c-2.9-1.7-5.1-4.3-6.5-7.3L38.7,89.6z"/>
	</g>

	<g id="html">
		<path d="M16.3,101.9L7.2,0.3h99.5l-9.1,101.6l-40.7,11.3L16.3,101.9z" fill="#E44F26"/>
		<path d="M57,104.5l32.9-9.1l7.7-86.8H57V104.5z" fill="#F1662A"/>
		<path d="M57,46.3H40.5l-1.1-12.8H57V21.1H25.7l0.3,3.3l3.1,34.3H57V46.3z M57,78.6L57,78.6l-13.9-3.7L42.2,65H29.6
			l1.7,19.6l25.5,7.1h0.1V78.6H57z" fill="#EBEBEB"/>
		<path d="M56.9,46.3v12.5h15.3L70.8,75l-13.9,3.7v13l25.5-7.1l0.2-2.1l2.9-32.8l0.3-3.3L56.9,46.3L56.9,46.3z
			M56.9,21.1v12.5H87l0.2-2.8l0.6-6.3l0.3-3.3H56.9V21.1z" fill="#FFFFFF"/>
	</g>

	<g id="vscode">
		<path d="M109.6,12.3L86.2,1.1c-1.3-0.6-2.8-0.8-4.2-0.6c-1.5,0.2-2.8,0.9-3.8,2L1.7,72.1c-0.9,0.8-1.5,2-1.5,3.3
			c-0.1,1.3,0.4,2.5,1.2,3.4c0.1,0.1,0.2,0.2,0.3,0.3l6.2,5.7c0.8,0.7,1.9,1.2,3,1.2s2.2-0.3,3.1-1l92.1-69.8
			c0.7-0.5,1.5-0.9,2.4-0.9c0.9-0.1,1.7,0.1,2.5,0.5s1.4,1,1.9,1.7s0.7,1.6,0.7,2.5v-0.3c0-1.3-0.4-2.6-1.1-3.8
			C111.8,13.8,110.8,12.9,109.6,12.3z" fill="#0065A9"/>
		<path d="M109.6,101.2l-23.4,11.2c-1.3,0.6-2.8,0.8-4.2,0.6c-1.4-0.2-2.8-0.9-3.8-2L1.7,41.4c-0.9-0.8-1.5-2-1.5-3.3
			c-0.1-1.3,0.4-2.5,1.2-3.4c0.1-0.1,0.2-0.2,0.3-0.3l6.2-5.7c0.8-0.7,1.9-1.2,3-1.2s2.2,0.3,3.1,1l92,69.8c0.7,0.5,1.5,0.9,2.4,0.9
			c0.9,0.1,1.7-0.1,2.5-0.5s1.4-1,1.9-1.7s0.7-1.6,0.7-2.5v0.3c0,1.3-0.4,2.6-1.1,3.8C111.8,99.7,110.8,100.6,109.6,101.2z" fill="#007ACC"/>
		<path d="M86.2,112.4c-1.3,0.6-2.8,0.8-4.2,0.6c-1.4-0.2-2.8-0.9-3.8-2c0.6,0.6,1.3,1,2.1,1.1c0.8,0.2,1.6,0.1,2.4-0.2
			c0.8-0.3,1.4-0.8,1.9-1.5s0.7-1.5,0.7-2.3V5.4c0-0.8-0.2-1.6-0.7-2.3s-1.1-1.2-1.9-1.5s-1.6-0.4-2.4-0.2S78.8,2,78.2,2.5
			c1-1,2.4-1.7,3.8-2c1.4-0.2,2.9,0,4.2,0.6l23.3,11.2c1.2,0.6,2.2,1.5,2.9,2.6c0.7,1.1,1.1,2.4,1.1,3.8v76.1c0,1.3-0.4,2.6-1.1,3.8
			c-0.7,1.1-1.7,2-2.9,2.6L86.2,112.4z" fill="#1F9CF0"/>
	</g>

	<g id="angular">
		<path fill="#dd0031" d="M56.7,0L4,20.2l8.1,68.8,44.5,24.3,44.5-24.3,8.1-68.8L56.7,0Z"/>
		<path fill="#c3002f" d="M56.7,0v113.4l44.5-24.3,8.1-68.8L56.7,0Z"/>
		<path fill="#fff" d="M56.7,12.5L23.8,86.5h12.3l6.6-16.6h27.9l6.6,16.6h12.3L56.7,12.5ZM66.3,59.8h-19.2l9.6-23.2,9.6,23.2Z"/>
	</g>

	<g id="material-ui">
		<path fill="#1b18ec" d="M0,11.7v49.1l14.2,8.2v-32.7l28.3,16.4,28.3-16.4v16.4l-28.3,16.4v16.4l28.3,16.4,42.5-24.5v-32.7l-14.2,8.2v16.4l-28.3,16.4-14.2-8.2,28.3-16.4V11.7l-42.5,24.5L0,11.7ZM113.4,11.7l-14.2,8.2v16.4l14.2-8.2V11.7h0Z"/>
	</g>

	<g id="storybook">
		<path id="path-1" fill="#ff4785" d="M14.1,103.6L10.6,10c-.1-3.1,2.3-5.7,5.3-5.9L95.5-.8c3.1-.2,5.8,2.2,6,5.3,0,.1,0,.2,0,.4v102c0,3.1-2.6,5.7-5.7,5.7s-.2,0-.3,0l-76.1-3.4c-3-.1-5.3-2.5-5.4-5.5h0Z"/>
		<path fill="#fff" d="M77.8,13.1L78.3,0l10.9-.9.5,13.5c0,.5-.4.9-.8.9-.2,0-.4,0-.6-.2l-4.2-3.3-5,3.8c-.4.3-.9.2-1.2-.2-.1-.2-.2-.4-.2-.5ZM63.8,41.9c0,2.2,14.9,1.2,16.9-.4,0-15.1-8.1-23-22.9-23s-23.2,8.1-23.2,20.2c0,21.1,28.4,21.5,28.4,32.9s-1.6,5.1-5.1,5.1-6.3-2.3-6.1-10.2c0-1.7-17.3-2.2-17.8,0-1.3,19,10.5,24.5,24.1,24.5s23.5-7,23.5-19.7c0-22.6-28.8-22-28.8-33.1s3.4-5.1,5.4-5.1,5.9.4,5.6,8.8Z"/>
	</g>

	<g id="tailwind">
		 <path fill="#44a8b3" d="M28.3,45.4c3.8-15.1,13.2-22.7,28.3-22.7,22.7,0,25.5,17,36.9,19.8,7.6,1.9,14.2-.9,19.8-8.5-3.8,15.1-13.2,22.7-28.3,22.7-22.7,0-25.5-17-36.9-19.8-7.6-1.9-14.2.9-19.8,8.5ZM0,79.4c3.8-15.1,13.2-22.7,28.3-22.7,22.7,0,25.5,17,36.9,19.8,7.6,1.9,14.2-.9,19.8-8.5-3.8,15.1-13.2,22.7-28.3,22.7-22.7,0-25.5-17-36.9-19.8-7.6-1.9-14.2.9-19.8,8.5Z"/>
	</g>

	<g id="webstorm">
		 <defs>
			 <linearGradient id="linear-gradient" x1="-240.9" y1="353.7" x2="-240.9" y2="353.5" gradientTransform="translate(165355.7 282492.3) scale(686.3 -798.8)" gradientUnits="userSpaceOnUse">
      			<stop offset=".3" stop-color="#00cdd7"/>
				 <stop offset=".9" stop-color="#2086d7"/>
    		</linearGradient>
			 <linearGradient id="linear-gradient1" x1="-241.2" y1="353.6" x2="-241.1" y2="353.5" gradientTransform="translate(139936.8 260810.5) scale(580 -737.5)" gradientUnits="userSpaceOnUse">
      			<stop offset=".1" stop-color="#fff045"/>
				 <stop offset=".4" stop-color="#00cdd7"/>
    		</linearGradient>
			 <linearGradient id="linear-gradient2" x1="-219.7" y1="387.3" x2="-218.7" y2="388.9" gradientTransform="translate(39007.8 88363.3) scale(160 -250)" gradientUnits="userSpaceOnUse">
				 <stop offset=".3" stop-color="#00cdd7"/>
				 <stop offset=".9" stop-color="#2086d7"/>
    		</linearGradient>
  		</defs>
		<polygon fill="url(#linear-gradient)" points="15.2 102.4 0 11.9 28.3 .2 46.2 10.8 62.9 1.9 97.3 15.2 78 113.4 15.2 102.4"/>
		<polygon fill="url(#linear-gradient1)" points="113.4 38.4 98.7 2.3 72.3 0 31.2 39.3 42.2 90.2 62.9 104.5 113.4 74.6 101 51.4 113.4 38.4"/>
		<polygon fill="url(#linear-gradient2)" points="90.7 33 101 51.4 113.4 38.4 104.4 15.9 90.7 33"/>
		<rect x="21.3" y="21.3" width="70.9" height="70.9"/>
		<path fill="#fff" d="M28,78.8h26.6v4.4h-26.6v-4.4ZM62.7,55.6l3.7-4.6c2.7,2.1,5.3,3.5,8.7,3.5s4.3-1.1,4.3-2.8-1.1-2.5-5.8-3.7c-5.8-1.6-9.6-3.2-9.6-9v-.2c0-5.3,4.3-8.9,10.1-8.9,3.9,0,7.7,1.3,10.8,3.7l-3.4,5c-2.1-1.7-4.7-2.7-7.4-2.8-2.3,0-3.7,1.1-3.7,2.7s1.2,2.7,6.2,3.9c5.8,1.6,9.2,3.7,9.2,8.9s-4.4,9.2-10.6,9.2c-4.6-.2-8.9-1.9-12.4-4.8ZM57,30.5l-4.4,17-5-17h-5l-5,17-4.4-17h-6.9l8.5,29.4h5.5l4.8-17,4.8,17h5.5l8.5-29.4h-6.9Z"/>
	</g>

	<g id="next-js">
    	<rect fill="#fff" x="0" y="0" width="113.4" height="113.4" rx="56.7" ry="56.7"/>
    	<path d="M53,.1c-.3,0-1,0-1.7.1C35.2,1.7,20.1,10.4,10.5,23.8,5.2,31.1,1.8,39.6.5,48.5c-.5,3.1-.5,4.1-.5,8.3s0,5.1.5,8.2c3.1,21.3,18.2,39.2,38.8,45.8,3.7,1.2,7.6,2,12,2.5,1.7.2,9.1.2,10.8,0,7.6-.9,14.1-2.7,20.4-6,1-.5,1.2-.6,1-.7-3.1-4.1-6.2-8.2-9.2-12.4l-9.1-12.2-11.3-16.8c-3.8-5.6-7.6-11.2-11.4-16.8,0,0,0,7.5,0,16.6,0,16,0,16.6-.2,17s-.5.8-1,1c-.4.2-.7.2-2.3.2h-1.9l-.5-.3c-.3-.2-.6-.5-.7-.8l-.2-.5v-44.4l.4-.4c.2-.3.5-.5.8-.7.5-.2.6-.3,2.6-.3s2.6,0,3.2.7c4.6,6.8,9.2,13.7,13.7,20.6,7.4,11.2,17.4,26.4,22.4,33.9l9,13.6.4-.3c4.3-2.9,8.2-6.3,11.6-10.2,7.1-8.2,11.8-18.2,13.3-29,.5-3.1.5-4,.5-8.3s0-5.1-.5-8.2c-3.1-21.3-18.2-39.2-38.8-45.8-3.8-1.2-7.8-2-11.8-2.5-1.1,0-8.4-.2-9.3,0h-.1ZM76.2,34.4c.5.3.9.7,1.1,1.3,0,.3,0,6.5,0,20.3v19.9l-3.5-5.4-3.5-5.4v-29.4c.2-.6.6-1.1,1.1-1.4.4-.2.6-.2,2.4-.2s1.9,0,2.3.2h0Z"/>
	</g>

	<g id="typescript">
		<path id="Vector" d="M0.2,56.8v56.7h56.7h56.7V56.8V0H56.9H0.2V56.8z" fill="#007ACC"/>
		<path id="Vector_00000047773184018410997960000015384012579904109226_" d="M25.3,57.1v4.6h7.4h7.4v21v21h5.1h5.2v-21
			v-21h7.4h7.4v-4.6c0-2.5-0.1-4.6-0.1-4.7c-0.1-0.1-9-0.1-19.9-0.1l-19.8,0.1L25.3,57.1z" fill="#FFFFFF"/>
		<path id="Vector_00000126304735306817942490000003925884309628738456_" d="M91.7,52.3c2.9,0.7,5.1,2,7.1,4.1
			c1,1.1,2.6,3.1,2.7,3.6c0,0.1-4.9,3.5-7.9,5.3c-0.1,0.1-0.5-0.4-1-1.1c-1.5-2.1-3-3-5.3-3.2c-3.4-0.2-5.7,1.6-5.6,4.6
			c0,0.9,0.1,1.4,0.5,2.1c0.8,1.6,2.2,2.5,6.6,4.4c8.1,3.5,11.6,5.8,13.8,9.1c2.4,3.7,3,9.5,1.3,13.8c-1.8,4.7-6.3,7.9-12.5,9
			c-1.9,0.3-6.6,0.3-8.6-0.1c-4.6-0.8-8.9-3.1-11.5-6c-1-1.2-3.1-4.2-3-4.4c0.1-0.1,0.5-0.4,1-0.7c0.5-0.3,2.4-1.4,4.2-2.4l3.3-1.9
			l0.7,1c1,1.5,3,3.5,4.3,4.1c3.6,1.9,8.6,1.6,11-0.6c1-1,1.5-1.9,1.5-3.4c0-1.3-0.2-1.9-0.8-2.9c-0.9-1.3-2.7-2.3-7.8-4.5
			c-5.8-2.5-8.4-4.1-10.7-6.6c-1.3-1.4-2.6-3.7-3.1-5.7c-0.4-1.6-0.5-5.6-0.2-7.2c1.2-5.7,5.5-9.6,11.6-10.8
			C85.1,51.8,89.7,51.8,91.7,52.3z" fill="#FFFFFF"/>
	</g>

	<g id="express">
		<path id="expressjs" d="M35.4,69.4V44.6h1.3v3.9c0.2-0.2,0.3-0.4,0.5-0.6c1.1-2.3,3.4-3.8,6-3.7c3.1-0.1,5.6,1,7,3.8
			c0.9,1.7,1.4,3.6,1.5,5.5c0.1,1.9-0.4,3.9-1.2,5.6c-1.3,3-4.7,4.5-8.3,4C41.1,63,40,62.6,39.1,62c-0.9-0.6-1.7-1.5-2.2-2.5v9.9
			H35.4z M36.7,53.4l0.3,2.9c0.5,3.3,2.5,5.3,5.6,5.6c1.4,0.2,2.9,0,4.2-0.8c1.3-0.7,2.2-1.9,2.8-3.3c1.2-2.9,1.1-6.1-0.2-8.9
			c-0.5-1.2-1.5-2.2-2.7-2.9s-2.5-0.9-3.9-0.7c-1.3,0.1-2.4,0.6-3.4,1.4c-1,0.8-1.7,1.9-2,3.1C37.1,51,36.9,52.2,36.7,53.4L36.7,53.4
			z M79.2,56.7c-0.2,1.7-1,3.4-2.3,4.5c-1.3,1.2-3,1.8-4.8,1.9c-5.6,0.3-8.3-3.5-8.7-7.8c-0.3-2.3,0.1-4.7,1.1-6.9
			c0.7-1.4,1.9-2.6,3.3-3.3c1.4-0.8,3.1-1.1,4.7-0.8c1.5,0.1,3,0.7,4.2,1.7s2,2.3,2.4,3.8c0.3,1.4,0.5,2.7,0.6,4.1H64.8
			c-0.3,3.9,1.8,7.1,4.8,7.8c3.7,0.9,6.9-0.7,8.1-4.2C77.9,56.6,78.4,56.5,79.2,56.7L79.2,56.7z M64.8,52.7h13.3
			c-0.1-4.2-2.7-7.2-6.2-7.2C67.9,45.4,65,48.3,64.8,52.7z M82,56.8h1.3c0,1,0.4,1.9,0.9,2.7s1.3,1.4,2.2,1.8
			c1.1,0.5,2.3,0.7,3.5,0.7s2.4-0.3,3.5-0.9c0.6-0.3,1.1-0.7,1.4-1.2s0.5-1.2,0.4-1.8c0-0.6-0.1-1.2-0.5-1.7
			c-0.3-0.5-0.8-0.9-1.4-1.1c-1.4-0.5-2.9-0.8-4.4-1.3c-1.5-0.4-3-1-4.4-1.6c-2.3-1.1-2.5-5.6,0.2-7c1.2-0.9,2.7-1.3,4.3-1.3
			c1.6,0,3.1,0.3,4.5,1.1c1.7,0.9,2.6,2.8,2.3,4.8h-1.1c0-0.1-0.1-0.1-0.1-0.2c-0.1-3.6-3.1-4.7-6.3-4.4c-1,0.1-1.9,0.4-2.7,0.8
			c-0.5,0.2-0.9,0.6-1.2,1.1c-0.3,0.5-0.4,1.1-0.4,1.6c0,0.6,0.2,1.1,0.5,1.6s0.8,0.8,1.3,1c1.4,0.6,2.9,1,4.3,1.4l3.5,0.9
			c0.8,0.3,1.5,0.8,2,1.4c0.5,0.7,0.8,1.5,0.8,2.3c0.3,1.9-0.7,3.7-2.4,4.6c-3.1,1.7-8.1,1.3-10.3-0.9C82.6,60,82,58.5,82,56.8
			L82,56.8z M113,50h-1.2c0-0.2-0.1-0.3-0.1-0.4c0-0.9-0.4-1.8-0.9-2.5c-0.6-0.7-1.4-1.2-2.3-1.3c-1.7-0.5-3.5-0.4-5.1,0.2
			c-0.6,0.2-1.2,0.6-1.6,1.1s-0.6,1.2-0.6,1.9s0.2,1.3,0.6,1.8s1,0.9,1.6,1.1l5.6,1.4c0.6,0.1,1.2,0.3,1.8,0.5c1.8,0.6,3,2.3,3,4.2
			c0,0.9-0.2,1.8-0.7,2.6c-0.5,0.8-1.2,1.4-2.1,1.7c-1.3,0.6-2.7,0.9-4.1,0.9s-2.8-0.3-4.1-0.8c-1.1-0.5-2-1.2-2.6-2.2
			s-0.9-2.1-0.9-3.3h1.2c0.4,2.2,1.9,4,4,4.8c2,0.9,4.4,0.6,6.2-0.6c0.6-0.3,1-0.7,1.3-1.3c0.3-0.5,0.5-1.2,0.4-1.8
			c0-0.6-0.1-1.2-0.5-1.7c-0.3-0.5-0.9-0.9-1.4-1.1c-1.4-0.5-2.9-0.8-4.4-1.3c-1.5-0.4-3-1-4.5-1.6c-2.3-1.1-2.5-5.6,0.1-7
			c1.4-0.8,2.9-1.2,4.5-1.2s3.2,0.4,4.6,1.1c0.8,0.5,1.4,1.2,1.8,2C112.9,48.1,113.1,49,113,50L113,50z M33.2,62.7
			c-0.5,0.2-1,0.2-1.5,0c-0.5-0.2-0.9-0.5-1.1-1l-4.7-6.6l-0.7-0.9l-5.5,7.5c-0.2,0.4-0.6,0.8-1.1,1s-1,0.2-1.4,0l7-9.5l-6.6-8.6
			c1-0.4,2.1,0,2.6,0.9l5,6.7l4.9-6.6c0.2-0.5,0.6-0.8,1.1-1c0.5-0.2,1-0.2,1.4,0L30,48l-3.5,4.5c-0.1,0.1-0.2,0.2-0.2,0.3
			c0,0.2-0.1,0.3-0.1,0.4c0,0.1,0,0.3,0.1,0.4c0.1,0.1,0.1,0.2,0.2,0.3L33.2,62.7L33.2,62.7z M63.2,44.5v1.3
			c-0.9-0.1-1.9,0.1-2.7,0.4c-0.9,0.3-1.7,0.8-2.3,1.5c-0.7,0.6-1.2,1.4-1.5,2.3c-0.3,0.9-0.5,1.8-0.5,2.7c0,3,0,6,0,9.1v1h-1.3V44.6
			h1.3v3.7C57.7,45.6,60.2,44.6,63.2,44.5L63.2,44.5z M0.2,53.1l0.6-2.8c1.6-5.6,8-8,12.5-4.5c2.6,2,3.3,4.9,3.1,8.2H1.7
			c-0.2,5.8,4,9.3,9.3,7.5c1.8-0.6,3.1-2.1,3.5-3.9c0.3-0.9,0.8-1.1,1.6-0.8c-0.1,1.1-0.5,2.2-1.2,3.1c-0.6,0.9-1.4,1.7-2.4,2.3
			c-1.6,0.9-3.4,1.2-5.2,1s-3.5-1-4.8-2.3c-1.3-1.5-2.1-3.3-2.3-5.3c0-0.3-0.1-0.6-0.2-0.9C0.2,54.1,0.2,53.6,0.2,53.1L0.2,53.1z
			M1.8,52.7h13.3c-0.1-4.2-2.7-7.2-6.3-7.2C4.7,45.4,1.9,48.3,1.8,52.7L1.8,52.7z"/>
	</g>

	<g id="mongodb">
		<path id="Vector_00000080908820875994304260000004083014609549925549_" d="M80.2,45.1C74.5,18.8,62.7,11.8,59.6,6.8
			C58,4.1,56.3,0,56.3,0c-0.2,2.3-0.5,3.8-2.4,5.6C50.2,9.2,34,23,32.7,53C31.4,80.9,52.2,98.1,55,99.9c2.1,1.1,4.7,0,5.9-1
			C70.9,91.6,84.6,72.4,80.2,45.1L80.2,45.1z" fill="#10AA50"/>
		<path id="Vector_00000022549532004143471080000017733443016996919481_" d="M57.2,85.1c-0.5,6.9-0.9,10.9-2.2,14.9
			c0,0,0.9,6.6,1.5,13.5h2.1c0.5-4.9,1.3-9.8,2.4-14.6C58.2,97.4,57.3,91.1,57.2,85.1z" fill="#B8C4C2"/>
		<path id="Vector_00000181072657127436800990000002890350959186477735_" d="M61,98.9c-2.8-1.4-3.7-7.8-3.8-13.8
			c0.7-9.9,0.9-19.9,0.6-29.8C57.7,50,57.9,6.9,56.6,0.6c0.5,1.2,1.8,4.1,3.1,6.2c3,5,14.9,12,20.6,38.3C84.6,72.4,71,91.6,61,98.9z"
			fill="#12924F"/>
	</g>

	<g id="styledComponents">
		<path id="Vector_00000170964025193543540160000005323028697609946806_" d="M65.1,111.8c0.2-0.4,0.6-0.7,0.9-1
			c4.8-5,9.6-9.9,14.2-15c1.5-1.4,2.6-3,3.3-4.9c0.7-1.9,1-3.9,0.8-5.9c-0.1-0.9-0.3-1.7-0.6-2.5c-1.3,1.2-2.5,2.3-3.7,3.4
			c-1.9,1.7-3.7,3.5-5.6,5.2c-1.1,1.1-2.5,1.9-4.1,2.2c-1.6,0.3-3.2,0.1-4.6-0.5C64.2,92.3,63,91.3,62,90c-0.9-1.3-1.5-2.8-1.5-4.3
			c0-0.2-0.1-0.4-0.2-0.6c-1.4,1.2-2.8,2.3-4.2,3.5l-28,23.9c-0.2,0.2-0.4,0.4-0.6,0.5h37.6H65C64.8,112.9,64.9,112.1,65.1,111.8z" fill="#FFCEBF"/>
		<path id="Vector_00000095306147144962263960000017335688917202909825_" d="M25.7,111.8c0.3-0.4,0.7-0.8,1.2-1.1
			l39-33.1c2.7-2.3,5.3-4.5,7.9-6.8c0.3-0.2,0.6-0.5,0.7-0.9c0.6-2.7,0.7-5.6,0.3-8.4c-0.4,0.3-0.6,0.4-0.8,0.6
			c-3.2,2.9-6.4,5.7-9.6,8.6c-1.1,1.1-2.4,1.8-3.9,2s-3,0-4.4-0.7c-1.4-0.6-2.5-1.7-3.3-3s-1.2-2.8-1.1-4.3v-1.3
			c-0.6,0.4-1,0.7-1.4,1c-15.6,12.5-31.2,25-46.8,37.5c-0.7,0.6-1.5,1.8-2.5,0.6c-0.9-1.2,0.5-1.7,1.2-2.3
			c16.6-13.4,33.3-26.7,49.9-40c2.7-2.2,2.9-3.1,1.1-6.5l-1.1,1c-2.9,2.7-5.8,5.3-8.6,8.1c-1.2,1.1-2.6,1.9-4.2,2.2
			c-1.6,0.3-3.2,0.2-4.8-0.4c-1.5-0.6-2.8-1.5-3.8-2.8S29.1,59,29,57.4c-0.5,0.4-1,0.7-1.4,1L3,77.4c-0.4,0.4-0.9,0.8-1.4,1
			c-0.4,0.1-0.8,0.1-1.2-0.1V113h25.3c-0.1-0.2-0.1-0.4-0.1-0.7C25.6,112.2,25.6,112,25.7,111.8z" fill="#FFCEBF"/>
		<path id="Vector_00000008112411740950496120000006030497224287111812_" d="M94.2,1.7c-0.7,2.3-1.4,4.5-2,6.8
			c-0.6,1.6-0.5,3.4,0.2,4.9c0.7,1.6,1.9,2.8,3.5,3.5c4.8,2.5,10.1,3.6,15.5,3.2v-18c-0.1-0.4,0-0.8,0.1-1.2c0.1-0.2,0.3-0.4,0.4-0.6
			H94.2C94.4,0.6,94.3,1.2,94.2,1.7z" fill="#FF6196"/>
		<path id="Vector_00000129916430456330290000000011808651317145194670_" d="M58.7,40.6c-0.1,2-0.8,4-2,5.6
			c-4.4,5.7-9.5,10.8-15.1,15.4c-0.9,0.8-2.1,1.4-3.3,1.5s-2.5-0.1-3.5-0.7c-1.1-0.5-2-1.2-2.6-2.2c-0.6-1-0.9-2.1-0.8-3.3
			c0.1-1.5,0.7-2.9,1.7-3.9c6.3-6,13.1-11.4,20.3-16.2c0.5-0.4,1.1-0.6,1.7-0.6c0.6,0,1.2,0.1,1.7,0.5c0.7,0.4,1.2,1,1.5,1.7
			C58.6,39.1,58.8,39.8,58.7,40.6z" fill="#FF87AF"/>
		<path id="Vector_00000132793606236930637510000018174109270625609372_" d="M53.9,65.2c-0.1-0.9,0-1.8,0.3-2.6
			s0.8-1.6,1.5-2.2c6.1-5.7,12.7-10.8,19.7-15.4c0.2-0.1,0.4-0.3,0.6-0.4c0.6-0.4,1.3-0.7,2.1-0.6c0.8,0,1.5,0.3,2.1,0.8
			s1,1.1,1.1,1.8c0.2,0.7,0.1,1.5-0.2,2.1c-0.9,2.9-2.5,5.6-4.7,7.7c-4.5,4.4-9.1,8.8-13.8,13c-0.7,0.7-1.6,1.2-2.6,1.3
			c-1,0.1-2-0.1-2.9-0.6s-1.7-1.2-2.3-2C54.3,67.2,54,66.2,53.9,65.2z" fill="#FF87AF"/>
		<path id="Vector_00000103263802302220036450000010958097433113708941_" d="M83.1,67.8c-1.1,1.2-2.3,2.4-3.4,3.6
			c-0.3,0.5-0.6,1-0.8,1.5c0.6,0.2,1.3,0.6,1.8,0.5c2.5-0.8,4.9-1.8,7.6-2.9c-0.6,1.4-1,2.6-1.7,3.8c-2.6,4.3-5.8,8.3-9.6,11.6
			c-1.4,1.4-2.9,2.7-4.5,4c-0.8,0.7-1.8,1.1-2.9,1.3c-1.1,0.2-2.1,0.1-3.1-0.3s-1.9-1-2.5-1.8c-0.7-0.8-1.1-1.8-1.3-2.9
			c-0.1-0.6,0-1.2,0.2-1.7c0.2-0.6,0.4-1.1,0.8-1.5c5.5-6,11.8-11.2,18.7-15.5c0.1,0,0.2-0.1,0.3-0.1L83.1,67.8z" fill="#FF87AF"/>
		<path id="Vector_00000102546304386727616030000010031273974619493526_" d="M92.4,51.7l6.9-30.8l4.9,1.1l-2.5,7.6
			c-2.3,7.1-4.7,14.2-7,21.3C94.2,52.3,93.6,52.5,92.4,51.7z" fill="#FF6196"/>
		<path id="Vector_00000160897042729791315790000010363139973540338088_" d="M84.6,69.8c0.7-2.8,1.5-5.4,2.1-8
			c0.6-2.5,1.7-4.9,3.3-7c1-1.3,2.1-0.8,3.2-0.5c1,0.3,1.3,1,1.4,2c0.2,2.8-0.7,5.5-2.4,7.7C90.1,66.6,87.5,68.6,84.6,69.8z" fill="#FF6196"/>
		<path id="Vector_00000027579794512366274060000013804392242453641400_" d="M113.4,3.6c0.1-0.9,0-1.8-0.1-2.7
			c-0.1-0.3-0.2-0.5-0.5-0.6c-0.2-0.1-0.4-0.2-0.6-0.3c-0.1,0-0.3,0.1-0.5,0.3s-0.3,0.4-0.4,0.6c-0.1,0.4-0.1,0.8-0.1,1.2v18.1
			c-5.4,0.4-10.7-0.7-15.5-3.2c-1.6-0.7-2.8-2-3.5-3.5c-0.7-1.6-0.7-3.3-0.2-4.9c0.6-2.3,1.3-4.5,2-6.8c0.2-0.5,0.3-1.1,0-1.4
			c-0.1-0.2-0.3-0.2-0.5-0.3c-0.3,0-0.5,0.1-0.7,0.3c-0.3,0.2-0.5,0.4-0.7,0.8c-0.8,2.4-1.5,4.9-2.1,7.4c-0.2,1-0.3,2-0.2,3
			c0.2,1.8,0.8,3.5,1.9,5c1.1,1.4,2.6,2.5,4.3,3.1c0.8,0.3,1.2,0.6,1,1.6c-0.3,1.3-0.6,2.6-0.9,3.8c-2,8.7-4,17.4-5.9,26.1
			c-0.1,0.4-0.2,0.8-0.5,1c-1.3,1-2.4,2.3-3.2,3.7c-1,1.9-1.8,3.9-2.1,6.1c-0.1,0.7-0.3,1.3-0.7,1.9c-0.4,0.6-0.9,1-1.5,1.3
			c-1.7,0.9-3.2,2-5.1,3.1c0.1-2.3,0.1-4.5-0.1-6.8c-0.1-0.7-0.1-1.4,0.1-2.1c0.2-0.7,0.6-1.3,1.1-1.8c2.5-2.4,4.2-5.5,5.1-8.9
			c0.3-0.8,0.3-1.6,0.2-2.4c-0.1-0.8-0.4-1.6-0.9-2.3s-1.1-1.2-1.8-1.6c-0.7-0.4-1.5-0.6-2.4-0.6c-1.3,0-2.6,0.4-3.8,1.1
			c-3.9,2.6-7.7,5.4-11.4,8.2c-2.2,1.7-4.3,3.5-6.4,5.3c-0.1-0.1-0.2-0.2-0.2-0.3c0-0.3-0.1-0.6-0.2-0.9c-1.8-2.8-0.6-4.8,1.4-6.9
			c2-2.1,3.2-5,3.1-7.9c0.1-1.5-0.4-3-1.3-4.2c-0.5-0.6-1.1-1.1-1.8-1.5c-1-0.5-2.1-0.8-3.2-0.6c-1.1,0.1-2.1,0.6-3,1.3l-1.1,0.8
			c-2.6,1.8-5.2,3.6-7.7,5.6c-3.6,2.9-7.2,5.9-10.6,9c-1.6,1.4-2.8,3.4-4.5,4.7c-8.8,7-17.7,13.7-26.5,20.6c-0.3,0.2-0.6,0.4-0.8,0.7
			c0,0,0,0.1-0.1,0.1C0.1,77.3,0,78,0.2,78.3c0.1,0.1,0.1,0.1,0.2,0.1c0.4,0.2,0.8,0.2,1.2,0.1c0.5-0.3,1-0.6,1.4-1l24.7-19.1
			c0.4-0.3,0.9-0.7,1.4-1c0.1,1.6,0.7,3.2,1.7,4.4c1,1.3,2.3,2.3,3.8,2.8c1.5,0.6,3.2,0.7,4.8,0.4c1.6-0.3,3-1.1,4.2-2.2
			c2.8-2.7,5.8-5.4,8.6-8.1l1.1-1c1.8,3.5,1.6,4.4-1.1,6.5c-16.7,13.3-33.3,26.7-50,40c-0.7,0.6-2.1,1.1-1.2,2.3
			c0.9,1.2,1.8,0,2.5-0.6c15.6-12.5,31.2-25,46.8-37.5c0.4-0.3,0.8-0.6,1.4-1v1.3c-0.1,1.5,0.3,3,1.1,4.3s1.9,2.3,3.3,3
			c1.3,0.7,2.9,0.9,4.4,0.7c1.5-0.2,2.9-0.9,3.9-2c3.2-2.8,6.4-5.7,9.6-8.6c0.2-0.2,0.4-0.3,0.8-0.6c0.5,2.8,0.4,5.6-0.3,8.4
			c-0.2,0.4-0.4,0.7-0.7,0.9c-2.6,2.3-5.3,4.6-7.9,6.8l-39,33.1c-0.5,0.3-0.9,0.7-1.2,1.1c-0.1,0.2-0.2,0.4-0.2,0.6s0,0.4,0.1,0.7
			c0.2,0.1,0.4,0.2,0.6,0.3c0.2,0,0.5,0,0.7,0c0.2-0.1,0.3-0.1,0.5-0.3c0.2-0.2,0.4-0.4,0.6-0.5l28.2-23.9c1.4-1.1,2.7-2.3,4.2-3.5
			c0.1,0.2,0.1,0.4,0.2,0.6c0.1,1.6,0.6,3.1,1.5,4.3c0.9,1.3,2.2,2.2,3.7,2.8c1.5,0.6,3.1,0.8,4.6,0.5c1.6-0.3,3-1.1,4.1-2.2
			c1.9-1.7,3.7-3.5,5.6-5.2c1.2-1.1,2.4-2.2,3.7-3.4c0.2,0.8,0.4,1.7,0.6,2.5c0.2,2-0.1,4-0.8,5.8c-0.7,1.9-1.8,3.5-3.3,4.9
			c-4.7,5.1-9.5,10-14.2,15c-0.3,0.3-0.7,0.6-0.9,1c-0.2,0.4-0.3,1.1-0.1,1.3h0.1c0.4,0.2,0.9,0.3,1.4,0.2c0.1,0,0.2-0.1,0.3-0.2
			c0.1-0.1,0.2-0.3,0.3-0.4c3.9-4,7.7-7.9,11.6-12c1.5-1.6,3-3.2,4.3-5c1.8-2,2.9-4.4,3.4-7c0.4-2.6,0.1-5.3-0.9-7.7
			c-0.1-0.5,0-1.1,0.3-1.6s0.6-0.9,0.9-1.3c1-1.2,1.8-2.6,2.4-4c1.2-3.5,3-6.8,5.4-9.7c1.1-1.4,1.9-3,2.2-4.8
			c0.4-1.7,0.3-3.5-0.2-5.2c-0.2-0.6-0.2-1.3,0-2c2-6.3,4.2-12.7,6.2-19l2.8-8.5l0.9-2.6c1.8,0,3.6,0,5.3,0c1.4,0,1.9-0.6,1.9-2
			C113.4,14.8,113.4,9.2,113.4,3.6z M41.6,61.5c-0.9,0.8-2.1,1.4-3.3,1.5s-2.5-0.1-3.5-0.7c-1.1-0.5-2-1.2-2.6-2.2
			c-0.6-1-0.9-2.1-0.8-3.3c0.1-1.4,0.7-2.8,1.7-3.8c6.3-6,13.1-11.4,20.3-16.2c0.4-0.3,0.8-0.5,1.3-0.6c0.3-0.1,0.6-0.1,1,0
			s0.7,0.2,1.1,0.4c0.7,0.4,1.2,1,1.5,1.7s0.5,1.5,0.4,2.3c-0.1,2-0.8,4-2,5.6C52.3,51.9,47.2,57,41.6,61.5z M62.7,69.4
			c-0.7,0.7-1.6,1.2-2.6,1.3c-1,0.1-2-0.1-2.9-0.6s-1.7-1.2-2.3-2.1s-0.9-1.9-1-2.9c-0.1-0.9,0-1.8,0.3-2.6s0.8-1.6,1.5-2.2
			c6.1-5.7,12.7-10.8,19.7-15.4c0.2-0.1,0.4-0.3,0.6-0.4c0.6-0.4,1.3-0.7,2.1-0.6c0.8,0,1.5,0.3,2.1,0.8s1,1.1,1.1,1.8
			c0.2,0.7,0.1,1.5-0.2,2.1c-0.9,2.9-2.5,5.6-4.7,7.7C72,60.8,67.3,65.1,62.7,69.4L62.7,69.4z M86.6,74.4C84,78.8,80.8,82.8,77,86
			c-1.4,1.4-2.9,2.7-4.5,4c-0.8,0.7-1.8,1.1-2.9,1.3c-1.1,0.2-2.1,0.1-3.1-0.3s-1.9-1-2.5-1.8c-0.7-0.8-1.1-1.8-1.3-2.9
			c-0.1-0.6,0-1.2,0.2-1.7c0.2-0.6,0.4-1.1,0.8-1.5c5.5-6,11.8-11.2,18.7-15.5c0.1,0,0.2-0.1,0.3-0.1l0.4,0.4
			c-1.1,1.2-2.3,2.4-3.4,3.6c-0.3,0.5-0.6,1-0.8,1.5c0.6,0.2,1.3,0.6,1.8,0.5c2-0.7,3.9-1.4,5.9-2.2l1.7-0.6
			C87.7,72,87.2,73.2,86.6,74.4L86.6,74.4z M92.2,64.1c-1.5,1.9-3.4,3.5-5.6,4.7c-0.7,0.4-1.4,0.7-2.1,1c0.7-2.8,1.4-5.3,2.1-7.9
			v-0.1c0.6-2.5,1.7-4.9,3.3-7c1-1.3,2.1-0.8,3.2-0.5c1,0.3,1.3,1,1.4,2C94.7,59.2,93.9,61.9,92.2,64.1L92.2,64.1z M101.6,29.7
			c-2.3,7.1-4.7,14.2-7,21.3c-0.4,1.3-1,1.6-2.3,0.8l6-26.7l0.9-4.1l4.9,1.1l-1,3L101.6,29.7z"/>
	</g>

	<g id="git">
		<path id="Vector" d="M111.2,51.6L61.7,2.1c-2.8-2.9-7.5-2.9-10.3,0L41.1,12.4l13,13c3-1,6.5-0.3,8.9,2.1s3.1,5.9,2.1,9
			l12.6,12.6c3-1,6.5-0.4,9,2.1c3.4,3.4,3.4,8.9,0,12.3s-8.9,3.4-12.3,0c-2.6-2.6-3.2-6.3-1.9-9.5L60.8,42.3v30.8
			c0.8,0.4,1.6,1,2.3,1.6c3.4,3.4,3.4,8.9,0,12.3s-8.9,3.4-12.3,0c-3.4-3.4-3.4-8.9,0-12.3c0.8-0.8,1.8-1.5,2.8-1.9V41.7
			c-1.1-0.4-2-1.1-2.8-1.9c-2.6-2.6-3.2-6.3-1.9-9.5L36.1,17.5l-34,33.9c-2.9,2.9-2.9,7.5,0,10.3l49.5,49.5c2.9,2.9,7.5,2.9,10.3,0
			L111.2,62C114.1,59.1,114.1,54.5,111.2,51.6L111.2,51.6z" fill="#DE4C36"/>
	</g>

	<g id="sass">
		<path id="Vector_00000021102059020059280850000000320215369700385688_" d="M97.6,63c-4,0-7.4,1-10.3,2.4
			c-1.1-2.1-2.1-3.9-2.3-5.3c-0.2-1.6-0.5-2.5-0.2-4.4c0.2-1.9,1.4-4.6,1.3-4.8c0-0.2-0.2-1.2-2.5-1.2s-4.2,0.4-4.5,1
			c-0.2,0.6-0.7,2-1,3.3c-0.4,2.1-4.6,9.4-6.9,13.2c-0.8-1.5-1.4-2.8-1.6-3.9c-0.2-1.6-0.5-2.5-0.2-4.4c0.2-1.9,1.4-4.6,1.3-4.8
			c0-0.2-0.2-1.2-2.5-1.2s-4.2,0.4-4.5,1c-0.2,0.6-0.5,2-1,3.3c-0.5,1.4-6,13.6-7.5,16.8c-0.6,1.3-1.2,2.5-1.8,3.8c0,0,0,0.1-0.1,0.2
			c-0.2,0.4-0.4,0.8-0.6,1.2l0,0c-0.3,0.6-0.6,1.1-0.8,1.1c-0.1,0-0.4-1.5,0-3.5c0.8-4.3,2.8-10.9,2.8-11.1c0-0.1,0.4-1.3-1.3-1.9
			c-1.6-0.6-2.2,0.4-2.3,0.4s-0.2,0.3-0.2,0.3s1.8-7.4-3.4-7.4c-3.3,0-7.8,3.6-10,6.8c-2.5,1.4-5.1,2.7-7.6,4.1
			c-1.2,0.7-2.5,1.4-3.7,2c-0.1-0.1-0.2-0.2-0.2-0.3C19.7,63.1,8,58.4,8.5,49.3C8.7,46.1,9.8,37.4,31,27c17.4-8.5,31.3-6.2,33.7-0.9
			c3.4,7.5-7.4,21.4-25.5,23.4c-6.9,0.8-10.5-1.9-11.4-2.9c-1-1-1.1-1.1-1.5-0.9c-0.6,0.3-0.2,1.2,0,1.8c0.5,1.4,2.8,3.9,6.5,5.1
			c3.3,1.1,11.4,1.7,21.1-2.1C65,46.2,73.5,34.6,71,24.9c-2.5-9.9-19.1-13.2-34.8-7.6c-9.3,3.3-19.4,8.5-26.7,15.2
			c-8.6,8-10,15-9.4,17.9c2,10.3,16.4,17.1,22.2,22.1c-0.3,0.2-0.6,0.3-0.8,0.4C18.6,74.3,7.6,80,4.9,86c-3.1,6.8,0.5,11.7,2.9,12.4
			c7.4,2,15-1.6,19.1-7.7c4.1-6,3.6-13.9,1.7-17.5c0,0,0-0.1-0.1-0.1c0.7-0.4,1.5-0.9,2.3-1.3c1.4-0.8,2.8-1.6,4.2-2.3
			c-0.7,1.9-1.2,4.2-1.5,7.5c-0.3,3.9,1.3,8.9,3.4,10.8c0.9,0.9,2,0.9,2.7,0.9c2.4,0,3.5-2,4.8-4.4c1.5-2.9,2.8-6.3,2.8-6.3
			s-1.7,9.2,2.9,9.2c1.7,0,3.3-2.1,4.1-3.2l0,0c0,0,0-0.1,0.1-0.2c0.2-0.3,0.3-0.4,0.3-0.4l0,0c0.7-1.2,2.2-3.8,4.4-8.1
			c2.9-5.6,5.6-12.6,5.6-12.6s0.2,1.7,1.1,4.5c0.5,1.7,1.5,3.5,2.4,5.3c-0.7,0.9-1.1,1.4-1.1,1.4l0,0c-0.5,0.7-1.1,1.5-1.8,2.2
			c-2.3,2.7-4.9,5.7-5.3,6.6c-0.4,1-0.3,1.8,0.5,2.4c0.6,0.5,1.7,0.5,2.8,0.5c2-0.1,3.5-0.6,4.2-0.9c1.1-0.4,2.4-1,3.6-1.9
			c2.2-1.6,3.6-3.9,3.4-7c-0.1-1.7-0.6-3.4-1.3-4.9c0.2-0.3,0.4-0.6,0.6-0.9c3.5-5.1,6.2-10.6,6.2-10.6s0.2,1.7,1.1,4.5
			c0.4,1.4,1.3,3,2,4.5c-3.3,2.6-5.3,5.7-6,7.7c-1.3,3.7-0.3,5.4,1.6,5.8c0.9,0.2,2.1-0.2,3-0.6c1.2-0.4,2.5-1,3.8-2
			c2.2-1.6,4.3-3.9,4.2-6.9c-0.1-1.4-0.4-2.8-1-4.1c2.8-1.1,6.4-1.8,11-1.3c9.9,1.1,11.8,7.2,11.4,9.8c-0.4,2.6-2.4,4-3.1,4.4
			s-0.9,0.6-0.8,0.9c0.1,0.5,0.4,0.4,1,0.3c0.8-0.1,5.2-2.1,5.4-6.8C113.7,69.5,107.9,62.9,97.6,63z M21.6,88.4
			c-3.3,3.5-7.8,4.9-9.8,3.7C9.7,91,10.5,85.7,14.5,82c2.4-2.3,5.6-4.4,7.7-5.7c0.5-0.3,1.2-0.7,2-1.2c0.1-0.1,0.2-0.1,0.2-0.1
			l0.5-0.3C26.4,80,25,84.7,21.6,88.4z M45.4,72.4c-1.1,2.8-3.5,9.8-5,9.4c-1.2-0.3-2-5.7-0.2-10.9c0.9-2.6,2.8-5.8,3.9-7
			c1.8-2,3.7-2.6,4.2-1.8C48.9,63,46.1,70.6,45.4,72.4z M65.1,81.7c-0.5,0.2-0.9,0.4-1.1,0.3c-0.1-0.1,0.2-0.4,0.2-0.4
			s2.5-2.6,3.4-3.8c0.6-0.7,1.2-1.5,1.9-2.4v0.3C69.5,78.7,66.4,80.8,65.1,81.7L65.1,81.7z M80.2,78.3c-0.4-0.2-0.3-1.1,0.9-3.6
			c0.5-1,1.5-2.7,3.4-4.3c0.2,0.7,0.4,1.3,0.3,1.9C84.8,76.2,81.9,77.6,80.2,78.3z" fill="#CD6799"/>
	</g>

	<g id="react">
		<path id="Vector_00000173152770526190480460000009879106834263865218_" d="M93.2,38.9c-1.2-0.4-2.4-0.8-3.6-1.2
			c0.2-0.8,0.4-1.7,0.6-2.5c2.8-13.5,1-24.3-5.2-27.9C79,3.9,69.3,7.5,59.6,16c-1,0.8-1.9,1.7-2.8,2.6c-0.6-0.6-1.2-1.2-1.9-1.7
			c-10.2-9.1-20.5-13-26.7-9.4c-5.9,3.4-7.7,13.6-5.2,26.4c0.2,1.3,0.5,2.5,0.8,3.8c-1.5,0.4-2.9,0.9-4.2,1.3C7.7,43.2,0,49.8,0,56.6
			c0,7,8.2,14.1,20.7,18.4c1,0.3,2,0.7,3.1,1c-0.3,1.3-0.6,2.7-0.9,4.1c-2.4,12.5-0.5,22.5,5.4,25.9c6.1,3.5,16.3-0.1,26.3-8.8
			c0.8-0.7,1.6-1.4,2.4-2.2c1,1,2,1.9,3.1,2.8c9.6,8.3,19.2,11.7,25,8.3c6.1-3.5,8.1-14.2,5.5-27.2c-0.2-1-0.4-2-0.7-3
			c0.7-0.2,1.4-0.4,2.1-0.7c13-4.3,21.5-11.3,21.5-18.5C113.4,49.7,105.5,43.1,93.2,38.9z M90.4,70.4c-0.6,0.2-1.3,0.4-1.9,0.6
			c-1.4-4.6-3.4-9.4-5.7-14.4c2.3-4.9,4.1-9.7,5.5-14.2c1.2,0.3,2.3,0.7,3.4,1.1c10.5,3.6,16.9,9,16.9,13.1
			C108.5,61,101.6,66.7,90.4,70.4z M85.7,79.7c1.1,5.8,1.3,11,0.5,15c-0.7,3.7-2,6.1-3.7,7.1c-3.6,2.1-11.2-0.6-19.5-7.7
			c-1-0.8-1.9-1.7-2.9-2.6c3.2-3.5,6.4-7.6,9.5-12.1c5.5-0.5,10.7-1.3,15.4-2.4C85.4,77.9,85.6,78.8,85.7,79.7z M38.7,101.4
			c-3.5,1.2-6.3,1.3-8,0.3c-3.6-2.1-5.1-10.1-3-20.8c0.2-1.3,0.5-2.5,0.8-3.8c4.6,1,9.8,1.8,15.3,2.2c3.1,4.4,6.4,8.5,9.7,12.1
			c-0.7,0.7-1.4,1.3-2.2,2C46.9,97.3,42.5,100,38.7,101.4z M22.3,70.4c-5.5-1.9-10.1-4.4-13.2-7.1c-2.8-2.4-4.2-4.8-4.2-6.8
			c0-4.1,6.2-9.4,16.4-13c1.2-0.4,2.5-0.8,3.9-1.2c1.4,4.6,3.3,9.5,5.5,14.4c-2.3,5-4.2,9.9-5.6,14.6C24.2,71,23.2,70.7,22.3,70.4z
			M27.8,33c-2.1-10.9-0.7-19.2,2.8-21.2c3.8-2.2,12.2,0.9,21,8.8c0.6,0.5,1.1,1,1.7,1.6c-3.3,3.6-6.5,7.6-9.7,12
			c-5.3,0.5-10.4,1.3-15.1,2.4C28.3,35.3,28,34.1,27.8,33L27.8,33z M76.7,45.1c-1.1-1.9-2.3-3.8-3.4-5.7c3.6,0.5,7.1,1.1,10.3,1.8
			c-1,3.1-2.2,6.4-3.6,9.8C78.9,49,77.8,47,76.7,45.1z M56.7,25.6c2.2,2.4,4.5,5.1,6.7,8.1c-4.5-0.2-8.9-0.2-13.4,0
			C52.2,30.7,54.5,28,56.7,25.6z M36.7,45.1C35.6,47,34.5,49,33.5,51c-1.4-3.4-2.6-6.7-3.6-9.8c3.2-0.7,6.7-1.3,10.3-1.8
			C38.9,41.3,37.8,43.2,36.7,45.1L36.7,45.1z M40.3,74.2c-3.7-0.4-7.2-1-10.4-1.7c1-3.2,2.2-6.6,3.7-10c1,2,2.1,4,3.2,5.9
			C37.8,70.3,39,72.3,40.3,74.2z M56.9,88c-2.3-2.5-4.6-5.2-6.8-8.2c2.2,0.1,4.4,0.1,6.6,0.1c2.3,0,4.6-0.1,6.8-0.2
			C61.3,82.7,59.1,85.5,56.9,88z M80,62.3c1.5,3.5,2.8,6.8,3.8,10c-3.3,0.8-6.8,1.4-10.6,1.8c1.2-1.9,2.4-3.8,3.5-5.8
			C77.9,66.3,78.9,64.3,80,62.3z M72.5,65.9c-1.7,3-3.5,5.9-5.4,8.8c-3.5,0.2-6.9,0.4-10.4,0.4s-7-0.1-10.3-0.3
			c-2-2.9-3.8-5.8-5.5-8.8l0,0c-1.7-3-3.3-6.1-4.8-9.2c1.5-3.1,3.1-6.2,4.8-9.2l0,0c1.7-3,3.6-5.9,5.5-8.8c3.4-0.3,6.8-0.4,10.3-0.4
			l0,0c3.5,0,7,0.1,10.3,0.4c1.9,2.9,3.7,5.8,5.5,8.8c1.7,3,3.4,6,4.9,9.1C75.9,59.8,74.2,62.8,72.5,65.9z M82.5,11.6
			c3.8,2.2,5.3,11.1,2.9,22.7c-0.2,0.7-0.3,1.5-0.5,2.3c-4.7-1.1-9.8-1.9-15.2-2.4c-3.1-4.5-6.3-8.5-9.6-12c0.8-0.8,1.7-1.6,2.6-2.4
			C71.1,12.4,78.9,9.5,82.5,11.6z M56.7,46.4c5.6,0,10.1,4.5,10.1,10.2c0,5.6-4.5,10.2-10.1,10.2s-10.1-4.5-10.1-10.2
			C46.6,51,51.1,46.4,56.7,46.4z" fill="#00D8FF"/>
	</g>
	<g id="docker">
		<path id="Vector_00000016072571773590526390000015222182831337941893_" d="M111,47c-2.6-1.8-8.4-2.4-13-1.6
			c-0.5-4.4-3-8.3-7.2-11.7l-2.4-1.8l-1.7,2.5c-2.1,3.3-3.2,8-2.9,12.4c0.1,1.5,0.6,4.3,2.2,6.8c-1.5,0.9-4.6,2-8.6,2H0.5l-0.2,0.9
			c-0.7,4.4-0.7,18.3,8,28.9c6.6,8.1,16.4,12.2,29.3,12.2C65.4,97.6,86,84.2,95.7,60c3.8,0.1,12,0,16.2-8.3c0.1-0.2,0.3-0.7,1.1-2.3
			l0.4-0.9L111,47z M62,15.8H50.3v11.1H62V15.8z M62,29.1H50.3v11.1H62V29.1L62,29.1z M48.2,29.1H36.5v11.1h11.7V29.1L48.2,29.1z
			M34.3,29.1H22.6v11.1h11.7V29.1L34.3,29.1z M20.5,42.4H8.8v11.1h11.7V42.4L20.5,42.4z M34.3,42.4H22.6v11.1h11.7V42.4L34.3,42.4z
			M48.2,42.4H36.5v11.1h11.7V42.4L48.2,42.4z M62,42.4H50.3v11.1H62V42.4L62,42.4z M75.8,42.4H64.1v11.1h11.7L75.8,42.4L75.8,42.4z"
			fill="#2396ED"/>
	</g>

<!-- Social Links -->
<g id="instagram">
	<path d="M91.8,0H22.1C10.1,0,0.3,9.8,0.3,21.9v23.2v46.4c0,12.1,9.8,21.9,21.9,21.9h69.5c12.1,0,21.9-9.8,21.9-21.9V45V21.9
		C113.6,9.8,103.8,0,91.8,0z M98.1,13.1h2.5v2.5v16.7H81.4V13.2L98.1,13.1z M40.8,45c3.6-5,9.5-8.3,16.2-8.3
		c6.6,0,12.5,3.3,16.2,8.3c2.4,3.3,3.8,7.3,3.8,11.6c0,11-8.9,20-20,20c-11,0-19.9-9-19.9-20C37,52.3,38.3,48.3,40.8,45z
		 M102.6,91.4c0,6-4.9,10.8-10.9,10.8H22.1c-6,0-10.9-4.9-10.9-10.8V45h17c-1.5,3.6-2.3,7.5-2.3,11.6c0,17.1,13.9,31,31,31
		s31-13.9,31-31c0-4.1-0.8-8.1-2.3-11.6h16.9C102.5,45,102.5,91.4,102.6,91.4z" fill="currentColor"/>
</g>

<g id="telegram">
	<path d="M113.3,17.9L96.2,98.6c-1.3,5.7-4.7,7.1-9.4,4.4L60.6,83.8L48.1,95.9c-1.4,1.4-2.6,2.6-5.2,2.6l1.9-26.6L93,28.2
		c2.1-1.9-0.5-2.9-3.3-1L30,64.8L4.3,56.7c-5.6-1.7-5.7-5.6,1.2-8.3L106,9.7C110.7,8,114.8,10.7,113.3,17.9z" fill="currentColor"/>
</g>
<g id="vk">
	<path d="M108.6,75.8c-2.5-3.1-5.3-5.8-8-8.5c-1-0.9-2-1.9-2.9-2.9c-2.8-2.8-2.9-3.8-0.7-7c1.5-2.2,3.1-4.4,4.7-6.5
		c1.4-1.9,2.9-3.9,4.3-5.9l0.3-0.4c2.7-3.8,5.4-7.8,6.9-12.5c0.4-1.3,0.8-3.1-0.1-4.7c-0.9-1.5-2.7-2-3.9-2.2
		c-0.6-0.1-1.2-0.1-1.8-0.1H90h-0.1c-2.6,0-4.4,1.3-5.4,3.9c-1,2.5-2,5.2-3.3,7.8c-2.4,5.1-5.5,11-10,15.9l-0.5,0.1
		c-0.5,0.6-1.1,1.2-1.6,1.2c-0.1,0-0.1,0-0.2,0c-0.9-0.4-1.5-2.7-1.5-3.8l0,0V29.3c0-0.1,0-0.1,0-0.2c-0.4-3.4-1.4-5.5-5.1-6.3
		c-0.1,0-0.2,0-0.3,0H43.8c-3,0-4.6,1.2-6.1,3.1c-0.4,0.5-1.3,1.5-0.8,2.8c0.4,1.3,1.8,1.5,2.3,1.6c2.3,0.4,3.5,1.9,3.9,4.4
		c0.6,4.4,0.7,9,0.2,14.7c-0.1,1.6-0.4,2.8-0.8,3.8c-0.1,0.2-0.4,1-0.8,1c-0.1,0-0.4,0-1-0.5c-1.4-1-2.4-2.4-3.6-4.2
		c-4.1-6-7.5-12.6-10.5-20.1c-1.1-2.8-3.2-4.4-5.8-4.4c-2.9,0-5.5-0.1-8-0.1c-2.7,0-5.3,0-7.7,0.1c-2.1,0-3.6,0.7-4.4,2
		c-0.8,1.3-0.7,2.9,0.1,4.9c7,16.1,13.3,27.8,20.5,37.9c5.1,7.1,10.1,12,16,15.5c6.1,3.6,13,5.4,21,5.4c0.9,0,1.8,0,2.8-0.1
		c4.7-0.2,6.4-2,6.6-6.7c0.1-2.4,0.4-4.9,1.5-7.1c0.7-1.4,1.4-1.4,1.6-1.4c0.4,0,1,0.2,1.5,0.6c1,0.7,1.9,1.6,2.6,2.4
		c0.7,0.8,1.3,1.5,2,2.3c1.4,1.7,2.9,3.4,4.5,5c3.4,3.6,7.1,5.1,11.4,4.8h16h0.1c1.6-0.1,3-1,3.8-2.5c1-1.8,1-4.2-0.1-6.3
		C111.4,79.5,109.9,77.4,108.6,75.8z"/>
</g>

<!-- Logo -->
<g id="logo">
	<path class="st29" d="M40.5,98.5l21.9-86.7l10.2,2.9l-21.9,86.9L40.5,98.5z"/>
	<path class="st29" d="M28.7,26.5l7.5,7.9l-21,22.3l21,22.2l-7.5,7.9L0.2,56.8L28.7,26.5z"/>
	<path class="st29" d="M85.1,26.5l-7.5,7.9l21,22.2l-21,22.2l7.5,7.9l28.5-30.2L85.1,26.5z"/>
</g>

<!-- Project Links -->
 <g id="preview">
	<path id="Vector" d="M9.62012 7.04688C8.9375 6.36459 8.01196 5.98129 7.04688 5.98129C6.08179 5.98129 5.15601 6.36459 4.47339 7.04688L1.89941 9.62021C1.2168 10.3028 0.833252 11.2286 0.833252 12.194C0.833252 13.1593 1.2168 14.0851 1.89941 14.7677C2.58203 15.4503 3.50781 15.8338 4.47314 15.8338C5.43848 15.8338 6.36426 15.4503 7.04688 14.7677L8.3335 13.481"  stroke-opacity="1.000000" stroke-width="1.666667" stroke-linejoin="round" stroke-linecap="round" />
	<path id="Vector" d="M7.04688 9.62027C7.72949 10.3026 8.65503 10.6859 9.62012 10.6859C10.5854 10.6859 11.511 10.3026 12.1936 9.62027L14.7678 7.04694C15.4502 6.36432 15.8337 5.43851 15.8337 4.47318C15.8337 3.50784 15.4502 2.58203 14.7678 1.89941C14.0852 1.21683 13.1592 0.833344 12.1938 0.833344C11.2285 0.833344 10.3027 1.21683 9.62012 1.89941L8.3335 3.1861"  stroke-opacity="1.000000" stroke-width="1.666667" stroke-linejoin="round" stroke-linecap="round"/>
</g>

<g id="github">
	<path id="Vector_00000078010923073439306050000009210322638859245740_" class="st29" d="M56.9,1.5C25.6,1.5,0.2,26.9,0.2,58.2
		c0,25.1,16.2,46.3,38.8,53.8c2.8,0.5,3.9-1.2,3.9-2.7c0-1.3-0.1-5.8-0.1-10.6c-14.2,2.6-17.9-3.5-19.1-6.7c-0.6-1.6-3.4-6.7-5.8-8
		c-2-1.1-4.8-3.7-0.1-3.8c4.5-0.1,7.7,4.1,8.7,5.8c5.1,8.6,13.3,6.2,16.5,4.7c0.5-3.7,2-6.2,3.6-7.6c-12.6-1.4-25.8-6.3-25.8-28
		c0-6.2,2.2-11.3,5.8-15.2c-0.6-1.4-2.6-7.2,0.6-15c0,0,4.7-1.5,15.6,5.8c4.5-1.3,9.4-1.9,14.2-1.9s9.6,0.6,14.2,1.9
		c10.8-7.4,15.6-5.8,15.6-5.8c3.1,7.8,1.1,13.6,0.6,15c3.6,4,5.8,9,5.8,15.2c0,21.8-13.3,26.6-25.9,28c2.1,1.8,3.8,5.2,3.8,10.5
		c0,7.6-0.1,13.7-0.1,15.6c0,1.5,1.1,3.3,3.9,2.7c11.3-3.8,21-11,28-20.7c6.9-9.6,10.7-21.2,10.7-33.1C113.6,26.9,88.2,1.5,56.9,1.5
		z" fill="currentColor"/>
</g>
</svg>
